<svg xmlns="http://www.w3.org/2000/svg" width="80" height="80" viewBox="0 0 80 80">
  <g id="add-user" transform="translate(0)">
    <path id="Path_3700" data-name="Path 3700" d="M57.433,40.142a40.656,40.656,0,0,0-4.7-1.888,21.25,21.25,0,1,0-25.444.013A40.645,40.645,0,0,0,.2,68.55,9.494,9.494,0,0,0,9.484,80H47.969a3.125,3.125,0,0,0,0-6.25H9.484a3.175,3.175,0,0,1-2.5-1.188,3.265,3.265,0,0,1-.662-2.737,34.527,34.527,0,0,1,32.85-27.34q.412.016.828.016t.837-.016a34.04,34.04,0,0,1,13.913,3.3,3.125,3.125,0,0,0,2.683-5.645ZM40.762,36.231q-.38-.007-.762-.007t-.756.007a15,15,0,1,1,1.518,0Z" transform="translate(0)" fill="#ff9424"/>
    <path id="Path_3701" data-name="Path 3701" d="M348.562,333.719h-8.594v-8.594a3.125,3.125,0,0,0-6.25,0v8.594h-8.594a3.125,3.125,0,0,0,0,6.25h8.594v8.594a3.125,3.125,0,0,0,6.25,0v-8.594h8.594a3.125,3.125,0,0,0,0-6.25Z" transform="translate(-271.687 -271.688)" fill="#ff9424"/>
  </g>
</svg>
