<svg xmlns="http://www.w3.org/2000/svg" width="85" height="95.912" viewBox="0 0 85 95.912">
  <g id="advisor" transform="translate(-0.14 -0.954)">
    <path id="Fill-3" d="M85.14,43.43A42.5,42.5,0,1,1,42.64.954,42.488,42.488,0,0,1,85.14,43.43" transform="translate(0 0)" fill="#d9ffff" fill-rule="evenodd"/>
    <path id="Fill-4" d="M659.666,673.91l9.81,12.9a8.564,8.564,0,0,1-6.726,10.733l-22.81-10.456,19.726-13.175" transform="translate(-606.525 -637.957)" fill="#ffa04f" fill-rule="evenodd"/>
    <path id="Fill-5" d="M1084.528,897l15.829,4.779c1.354,4.075-.6,12.429-4.6,15.242l-17.232-7.992L1084.528,897" transform="translate(-1022.295 -849.444)" fill="#ffa04f" fill-rule="evenodd"/>
    <path id="Fill-6" d="M432.926,394.109s-28.4-21.439-30.915-17.267c-2.874,4.778,27.125,23.226,27.125,23.226l3.79-5.96" transform="translate(-380.787 -355.829)" fill="#ffa04f" fill-rule="evenodd"/>
    <path id="Fill-7" d="M558.267,254.772l-20.46-.123a2.378,2.378,0,0,1-2.307-2.43l.077-44.233a2.311,2.311,0,0,1,2.271-2.335l20.062-.061a2.327,2.327,0,0,1,2.3,2.332l.364,44.437a2.341,2.341,0,0,1-2.311,2.414" transform="translate(-507.517 -193.993)" fill="#8fc9ed" fill-rule="evenodd"/>
    <path id="Fill-8" d="M564.844,259.827a2.029,2.029,0,0,1-.258.015l-20.453-.145a2.075,2.075,0,0,1-1.992-2.127l.071-44.184a2.016,2.016,0,0,1,1.961-2.044l20.061-.082.094,0a1.949,1.949,0,0,1,1.329.606,2.049,2.049,0,0,1,.565,1.407l.359,44.482a2.033,2.033,0,0,1-1.736,2.07" transform="translate(-513.812 -199.369)" fill="#33201b" fill-rule="evenodd"/>
    <path id="Fill-9" d="M577.926,254.294l.345,44.327-23.041-.129.059-44.2h22.638" transform="translate(-526.221 -240.164)" fill="#fff" fill-rule="evenodd"/>
    <path id="Fill-10" d="M810.287,301.519H806.7l.278,4.154,3.96,0-.651-4.15" transform="translate(-764.612 -284.933)" fill="#ffded9" fill-rule="evenodd"/>
    <path id="Fill-11" d="M802.11,253.927l.239,2.475h3.587l-.607-2.475H802.11" transform="translate(-760.261 -239.816)" fill="#ffded9" fill-rule="evenodd"/>
    <path id="Fill-12" d="M739.611,301.519h-3.585l-.1,4.158,3.958,0-.278-4.154" transform="translate(-697.523 -284.933)" fill="#ff3305" fill-rule="evenodd"/>
    <path id="Fill-13" d="M737.9,253.927l-.128,2.475h3.585l-.239-2.475H737.9" transform="translate(-699.267 -239.816)" fill="#ff3305" fill-rule="evenodd"/>
    <path id="Fill-14" d="M864,253.927l.607,2.475H868.2l-.976-2.475H864" transform="translate(-818.932 -239.816)" fill="#ff3305" fill-rule="evenodd"/>
    <path id="Fill-15" d="M879.259,301.519H875.67l.651,4.15,3.961,0-1.023-4.147" transform="translate(-829.995 -284.933)" fill="#ff3305" fill-rule="evenodd"/>
    <path id="Fill-16" d="M925.9,253.927l.976,2.475h3.765l-1.318-2.475H925.9" transform="translate(-877.613 -239.816)" fill="#ffded9" fill-rule="evenodd"/>
    <path id="Fill-17" d="M948.435,301.519H944.67l1.023,4.147,4.086,0-1.344-4.142" transform="translate(-895.406 -284.933)" fill="#ffded9" fill-rule="evenodd"/>
    <path id="Fill-18" d="M531.156,253.927,529.88,256.4h3.647l.861-2.475h-3.233" transform="translate(-502.189 -239.816)" fill="#ffded9" fill-rule="evenodd"/>
    <path id="Fill-19" d="M506.37,301.519l-1.29,4.17,4.094,0,.844-4.166H506.37" transform="translate(-478.679 -284.933)" fill="#ffded9" fill-rule="evenodd"/>
    <path id="Fill-20" d="M660.32,301.519l-.47,4.162,3.957,0,.1-4.158H660.32" transform="translate(-625.4 -284.933)" fill="#ffded9" fill-rule="evenodd"/>
    <path id="Fill-21" d="M669.375,253.927l-.495,2.475h3.583l.128-2.475h-3.217" transform="translate(-633.96 -239.816)" fill="#ffded9" fill-rule="evenodd"/>
    <path id="Fill-22" d="M584.634,301.519l-.844,4.166,3.956,0,.47-4.162h-3.582" transform="translate(-553.296 -284.933)" fill="#ff3305" fill-rule="evenodd"/>
    <path id="Fill-23" d="M600.871,253.927l-.861,2.475h3.582l.495-2.475h-3.215" transform="translate(-568.672 -239.816)" fill="#ff3305" fill-rule="evenodd"/>
    <path id="Fill-24" d="M509.175,381.715l-4.093,0,0-.012v.617a2.038,2.038,0,0,0,2.068,2.007,1.968,1.968,0,0,0,2.027-1.959v-.657" transform="translate(-478.679 -360.951)" fill="#ffc9c0" fill-rule="evenodd"/>
    <path id="Fill-25" d="M587.746,381.256l-3.955,0v.606a2,2,0,0,0,2,2.007,1.932,1.932,0,0,0,1.958-1.959v-.657" transform="translate(-553.296 -360.516)" fill="#ed2f05" fill-rule="evenodd"/>
    <path id="Fill-26" d="M663.806,381.256l-3.954,0,0-.012v.617a2,2,0,0,0,2,2.007,1.932,1.932,0,0,0,1.958-1.959v-.657" transform="translate(-625.4 -360.516)" fill="#ffc9c0" fill-rule="evenodd"/>
    <path id="Fill-27" d="M739.906,381.256l-3.955,0,0-.012v.617a2,2,0,0,0,2,2.007,1.932,1.932,0,0,0,1.959-1.959v-.657" transform="translate(-697.542 -360.516)" fill="#ed2f05" fill-rule="evenodd"/>
    <path id="Fill-28" d="M816.016,381.256l-3.954,0,0-.012v.617a2,2,0,0,0,2,2.007,1.932,1.932,0,0,0,1.958-1.959v-.657" transform="translate(-769.694 -360.516)" fill="#ffc9c0" fill-rule="evenodd"/>
    <path id="Fill-29" d="M892.076,381.256l-3.955,0,0-.012v.617a2,2,0,0,0,2,2.007,1.933,1.933,0,0,0,1.959-1.959v-.657" transform="translate(-841.798 -360.516)" fill="#ed2f05" fill-rule="evenodd"/>
    <path id="Fill-30" d="M968.351,380.871l-4.089,0,0-.012v.617a2.037,2.037,0,0,0,2.066,2.007,1.968,1.968,0,0,0,2.025-1.959v-.657" transform="translate(-913.978 -360.151)" fill="#ffc9c0" fill-rule="evenodd"/>
    <path id="Fill-31" d="M509.134,381.715v-.008H505.08l0,.012,4.053,0" transform="translate(-478.679 -360.951)" fill="#fbd2cb" fill-rule="evenodd"/>
    <path id="Fill-32" d="M583.04,381.715h.039v-.008h-.039v.008" transform="translate(-552.584 -360.951)" fill="#f13005" fill-rule="evenodd"/>
    <path id="Fill-33" d="M583.79,381.707v0h0" transform="translate(-553.296 -360.951)" fill="#f13005" fill-rule="evenodd"/>
    <path id="Fill-34" d="M629.37,497.276h14.707v-14.7H629.37Z" transform="translate(-596.505 -456.575)" fill="#04f2f5" fill-rule="evenodd"/>
    <path id="Fill-35" d="M694.93,594.8h5.1l.887-2.762h-6.875Zm5.285.5h-5.467a.251.251,0,0,1-.238-.174l-1.047-3.263a.251.251,0,0,1,.239-.327h7.561a.25.25,0,0,1,.238.327l-1.047,3.263A.251.251,0,0,1,700.215,595.3Z" transform="translate(-657.252 -559.871)" fill="#0d0d0d" fill-rule="evenodd"/>
    <path id="Fill-36" d="M725.342,572.236H720.68a.25.25,0,0,1,0-.5h4.479a.454.454,0,0,0,.464-.434.439.439,0,0,0-.183-.446l1.574-4.93a.251.251,0,0,1,.239-.174h1.628a.25.25,0,0,1,0,.5h-1.445l-1.443,4.576a.943.943,0,0,1-.651,1.409" transform="translate(-682.829 -535.422)" fill="#0d0d0d" fill-rule="evenodd"/>
    <path id="Fill-37" d="M733.661,696.086a.576.576,0,1,1-.576-.576.576.576,0,0,1,.576.576" transform="translate(-694.281 -658.433)" fill="#0d0d0d" fill-rule="evenodd"/>
    <path id="Fill-38" d="M789.371,696.086a.576.576,0,1,1-.576-.576.576.576,0,0,1,.576.576" transform="translate(-747.094 -658.433)" fill="#0d0d0d" fill-rule="evenodd"/>
    <path id="Fill-39" d="M769.01,595.3a.251.251,0,0,1-.25-.251V591.79a.25.25,0,0,1,.5,0v3.263a.251.251,0,0,1-.251.251" transform="translate(-728.646 -559.871)" fill="#0d0d0d" fill-rule="evenodd"/>
    <path id="Fill-40" d="M728.689,595.3a.251.251,0,0,1-.244-.2l-.74-3.262a.25.25,0,1,1,.488-.111l.741,3.262a.25.25,0,0,1-.189.3.258.258,0,0,1-.056.006" transform="translate(-689.719 -559.87)" fill="#0d0d0d" fill-rule="evenodd"/>
    <path id="Fill-41" d="M794.728,595.3l-.036,0a.25.25,0,0,1-.212-.284l.474-3.263a.25.25,0,0,1,.5.072l-.475,3.263a.25.25,0,0,1-.247.214" transform="translate(-753.025 -559.869)" fill="#0d0d0d" fill-rule="evenodd"/>
    <path id="Fill-42" d="M710.408,623.791H703.9a.25.25,0,0,1,0-.5h6.508a.25.25,0,0,1,0,.5" transform="translate(-666.922 -589.969)" fill="#0d0d0d" fill-rule="evenodd"/>
    <path id="Fill-43" d="M672.958,552.309a1.829,1.829,0,1,1-1.829-1.829,1.829,1.829,0,0,1,1.829,1.829" transform="translate(-634.358 -520.946)" fill="#f13005" fill-rule="evenodd"/>
    <path id="Fill-44" d="M685.034,575.439a.489.489,0,0,1-.454-.3l.186-.106a.3.3,0,0,0,.268.2.226.226,0,0,0,.237-.241c0-.139-.083-.241-.276-.241a.636.636,0,0,0-.349.141v-.771h.815v.212h-.593v.254a.445.445,0,0,1,.627.406.438.438,0,0,1-.462.448" transform="translate(-648.844 -543.357)" fill="#fff" fill-rule="evenodd"/>
    <path id="Fill-45" d="M705.893,574.37c0-.254-.084-.463-.263-.463s-.267.209-.267.463.087.463.267.463S705.893,574.625,705.893,574.37Zm.222,0c0,.352-.155.671-.485.671s-.489-.319-.489-.671.16-.67.489-.67S706.115,574.018,706.115,574.37Z" transform="translate(-668.334 -542.959)" fill="#fff" fill-rule="evenodd"/>
    <path id="Fill-46" d="M650.26,823.814h12.267V818.35H650.26Z" transform="translate(-616.308 -774.885)" fill="#ff3305" fill-rule="evenodd"/>
    <path id="Fill-47" d="M691.282,848.845c0-.238-.181-.351-.52-.351H690v.7h.762C691.1,849.191,691.282,849.086,691.282,848.845ZM690,847.352v.666h.649c.319,0,.493-.113.493-.335s-.174-.331-.493-.331Zm1.94,1.561c0,.488-.387.77-1.129.77h-1.46V846.86h1.38c.706,0,1.069.294,1.069.734a.679.679,0,0,1-.375.622A.7.7,0,0,1,691.94,848.913Z" transform="translate(-653.365 -801.912)" fill="#fff" fill-rule="evenodd"/>
    <path id="Fill-48" d="M748.21,848.441V846.86h.654v1.557c0,.536.234.758.629.758s.629-.222.629-.758V846.86h.645v1.581a1.279,1.279,0,1,1-2.558,0" transform="translate(-709.164 -801.912)" fill="#fff" fill-rule="evenodd"/>
    <path id="Fill-49" d="M803.236,848.683v1h-.653v-1.008l-1.093-1.815h.694l.754,1.254.755-1.254h.641l-1.1,1.823" transform="translate(-759.673 -801.912)" fill="#fff" fill-rule="evenodd"/>
    <path id="Fill-50" d="M910.06,500.345c-4.385-7.418-13.286-21.494-13.286-21.494s-1.961-.4-2.089,3.186S898.6,492,898.6,492s-1.635,17.33,7.3,17.342c6.206.009,6.627-6,4.163-8.994" transform="translate(-848.02 -453.031)" fill="#ffa04f" fill-rule="evenodd"/>
    <path id="Fill-51" d="M471.752,556.52s-6.061,2.42-2.225,7.293,5.815,0,3.572-3.943a17.038,17.038,0,0,1-1.347-3.349" transform="translate(-443.769 -526.672)" fill="#ffa04f" fill-rule="evenodd"/>
    <path id="Fill-52" d="M471.752,662.13s-6.061,2.42-2.225,7.292,5.815,0,3.572-3.943a17.038,17.038,0,0,1-1.347-3.349" transform="translate(-443.769 -626.789)" fill="#ffa04f" fill-rule="evenodd"/>
    <path id="Fill-53" d="M483.219,847.88s-4.729,1.888-1.735,5.689,4.536,0,2.786-3.076a13.323,13.323,0,0,1-1.051-2.613" transform="translate(-455.368 -802.879)" fill="#ffa04f" fill-rule="evenodd"/>
    <path id="Fill-54" d="M426.974,931.275s12.785-23.36,10.75-25.726-16.784,23.572-16.784,23.572l6.034,2.154" transform="translate(-398.915 -857.404)" fill="#ffa04f" fill-rule="evenodd"/>
    <path id="Fill-55" d="M337.955,1246.807c-1.079,1.984-12.873,11.3-12.873,11.3-10.393-4.483,6.333-15.011,6.333-15.011s-4.174-7.017-.483-7.979a4.878,4.878,0,0,1,5.22,2.235c.1.145.189.275.255.381.111.181.167.293.167.293s2.458,6.8,1.38,8.785" transform="translate(-304.816 -1169.827)" fill="#ffa04f" fill-rule="evenodd"/>
    <path id="Fill-56" d="M165.82,1136.35l-1.361-.914-7.9,14.57-12.547-6.673s2.581-16.526,4.346-18.708a13.584,13.584,0,0,1,4.214-3.342c2.221-1.09,3.1-.029,4.114-.25,2.308-.5,3.5,1.507,4.158,1.31a4.17,4.17,0,0,1,2.605.251,4.253,4.253,0,0,1,1,.566l0,0a2.355,2.355,0,0,1,.677.772l3.734,1.045-.928,3.47.122.024-.266.514-1.971,7.364" transform="translate(-136.388 -1061.587)" fill="#ffa04f" fill-rule="evenodd"/>
    <path id="Fill-57" d="M525.852,1288.095c-.861,3.159-3.222,2.688-2.485.816l3.89-6.961c.1.145.15.22.216.326a20.415,20.415,0,0,0-1.621,5.819" transform="translate(-495.881 -1214.374)" fill="#db6704" fill-rule="evenodd"/>
    <path id="Fill-58" d="M38.032,1514.7c-6.416-.482-13.569-7.634-13-11.154l7.221-6.974,13.36,6.9L38.032,1514.7" transform="translate(-23.567 -1417.832)" fill="#ffa04f" fill-rule="evenodd"/>
  </g>
</svg>
