<svg id="cancel" xmlns="http://www.w3.org/2000/svg" width="20" height="20" viewBox="0 0 20 20">
  <g id="Group_4585" data-name="Group 4585">
    <g id="Group_4584" data-name="Group 4584" transform="translate(0 0)">
      <path id="Path_9167" data-name="Path 9167" d="M17.075,2.995a10,10,0,1,0,0,14.149A10.013,10.013,0,0,0,17.075,2.995Zm-1.1,13.053a8.454,8.454,0,1,1,0-11.957A8.461,8.461,0,0,1,15.98,16.048Z" transform="translate(0 -0.07)" fill="#ff6397"/>
    </g>
  </g>
  <g id="Group_4587" data-name="Group 4587" transform="translate(6.533 6.437)">
    <g id="Group_4586" data-name="Group 4586">
      <path id="Path_9168" data-name="Path 9168" d="M174.044,170.518l-2.193-2.191,2.193-2.191a.775.775,0,0,0-1.1-1.1l-2.195,2.192-2.195-2.192a.775.775,0,0,0-1.1,1.1l2.193,2.191-2.193,2.191a.775.775,0,0,0,1.1,1.1l2.195-2.192,2.195,2.192a.775.775,0,1,0,1.1-1.1Z" transform="translate(-167.236 -164.813)" fill="#ff6397"/>
    </g>
  </g>
</svg>
