<svg xmlns="http://www.w3.org/2000/svg" xmlns:xlink="http://www.w3.org/1999/xlink" width="38.3" height="38.3" viewBox="0 0 38.3 38.3"><defs><style>.a{fill:#fff;stroke:#adadad;stroke-width:0.3px;}.b{fill:#e24c4b;}.c{filter:url(#a);}</style><filter id="a" x="0" y="0" width="38.3" height="38.3" filterUnits="userSpaceOnUse"><feOffset dx="1" dy="1" input="SourceAlpha"/><feGaussianBlur stdDeviation="0.5" result="b"/><feFlood flood-color="#7e7c7c" flood-opacity="0.161"/><feComposite operator="in" in2="b"/><feComposite in="SourceGraphic"/></filter></defs><g transform="translate(0.65 0.65)"><g class="c" transform="matrix(1, 0, 0, 1, -0.65, -0.65)"><circle class="a" cx="17.5" cy="17.5" r="17.5" transform="translate(0.65 0.65)"/></g><path class="b" d="M130.4,130.4a1.363,1.363,0,0,1-1.911,0l-4.429-4.429-4.429,4.429a1.351,1.351,0,1,1-1.911-1.911l4.429-4.429-4.429-4.429a1.351,1.351,0,0,1,1.911-1.911l4.429,4.429,4.429-4.429a1.351,1.351,0,1,1,1.911,1.911l-4.429,4.429,4.429,4.429A1.363,1.363,0,0,1,130.4,130.4Z" transform="translate(-106.565 -106.565)"/></g></svg>