<svg xmlns="http://www.w3.org/2000/svg" width="30" height="33.081" viewBox="0 0 30 33.081">
  <g id="country" transform="translate(-33 -10)">
    <path id="Path_5841" data-name="Path 5841" d="M420.3,134.551a1.346,1.346,0,1,0,1.346,1.346A1.346,1.346,0,0,0,420.3,134.551Zm0,1.962a.616.616,0,1,1,.616-.616.616.616,0,0,1-.616.616Z" transform="translate(-359.751 -116.04)" fill="#fff"/>
    <path id="Path_5842" data-name="Path 5842" d="M159.513,31.409a1.585,1.585,0,1,0-1.585-1.585A1.585,1.585,0,0,0,159.513,31.409Zm0-2.441a.855.855,0,1,1-.855.855A.855.855,0,0,1,159.513,28.968Z" transform="translate(-116.228 -16.738)" fill="#fff"/>
    <path id="Path_5843" data-name="Path 5843" d="M235.768,207.358a1.585,1.585,0,1,0-1.585,1.585A1.585,1.585,0,0,0,235.768,207.358Zm-1.585.855a.855.855,0,1,1,.855-.855.856.856,0,0,1-.855.855Z" transform="translate(-185.983 -182.587)" fill="#fff"/>
    <path id="Path_5844" data-name="Path 5844" d="M62.177,112.825a1.585,1.585,0,1,0-1.585-1.585A1.585,1.585,0,0,0,62.177,112.825Zm0-2.441a.855.855,0,1,1-.855.855A.855.855,0,0,1,62.177,110.384Z" transform="translate(-25.441 -92.654)" fill="#fff"/>
    <path id="Path_5845" data-name="Path 5845" d="M63,19.767a2.515,2.515,0,0,0-2.477-2.375,2.44,2.44,0,0,0-1.629.628,16.844,16.844,0,0,0-4.8-3.232,15.317,15.317,0,0,0-6.231-1.434,15.681,15.681,0,0,0-1.654.1,2.911,2.911,0,0,0,.022-.594,2.986,2.986,0,0,0-5.966,0,3.143,3.143,0,0,0,.626,2.047l.083.111a20.273,20.273,0,0,0-2.13,1.389,2.949,2.949,0,0,0-2.143-.933,3.031,3.031,0,0,0-2.983,2.862,3.143,3.143,0,0,0,.626,2.047l.481.643A16.318,16.318,0,0,0,33,28.225a14.856,14.856,0,1,0,29.712,0,21.021,21.021,0,0,0-.973-5.775l.737-.985A2.553,2.553,0,0,0,63,19.767ZM41.063,12.915a2.179,2.179,0,0,1,4.355,0,2.273,2.273,0,0,1-.467,1.509l-1.711,2.289L41.532,14.43A2.332,2.332,0,0,1,41.063,12.915Zm-6.547,5.477a2.179,2.179,0,0,1,4.355,0A2.272,2.272,0,0,1,38.4,19.9l-1.711,2.289-1.708-2.285a2.332,2.332,0,0,1-.469-1.515Zm.842,3.361,1.012,1.354a.4.4,0,0,0,.646,0l2.034-2.721a3.056,3.056,0,0,0,.259-3.323,19.388,19.388,0,0,1,2.145-1.39l1.463,1.957a.4.4,0,0,0,.647,0L45.6,14.909a3.232,3.232,0,0,0,.36-.61c.168-.021.335-.042.5-.058l1.7,2.446a1.614,1.614,0,0,1-.048,1.91l-.479.622a1.1,1.1,0,0,1-1.006.418l-.543-.069a1.968,1.968,0,0,0-1.948.956,1.109,1.109,0,0,1-1.1.539L41.779,20.9a2.034,2.034,0,0,0-1.951.883,1.81,1.81,0,0,0-.031,1.982l.828,1.309a1.687,1.687,0,0,0,1.426.781,1.667,1.667,0,0,0,.789-.2L43.7,25.2a2.043,2.043,0,0,1,1.586-.025,3.216,3.216,0,0,0,.625,1.67l2.034,2.722a.4.4,0,0,0,.646,0l1.032-1.38.131.18c.056.077.115.154.177.227l1.036,1.22a.527.527,0,0,1-.08.759l-1.57,1.207a2.525,2.525,0,0,0-.879,1.266l-.523,1.7a1.058,1.058,0,0,1-.2.366l-.509.613a2.982,2.982,0,0,0-.674,1.6.8.8,0,0,1-.488.658.4.4,0,0,1-.549-.3l-.48-2.88a2.236,2.236,0,0,0-.426-.985l-1.757-2.306a2.035,2.035,0,0,1-.344-.693l-.58-2.094a2.209,2.209,0,0,0-1.54-1.535l-.126-.034a1.62,1.62,0,0,1-.682-.382l-1.082-1.019a2.444,2.444,0,0,1-.439-.553,2.408,2.408,0,0,0-2.549-1.154.4.4,0,0,0-.047.012l-1.084.353a15.785,15.785,0,0,1,1-2.66Zm10.728,3.1a2.179,2.179,0,0,1,4.355,0,2.272,2.272,0,0,1-.467,1.509l-1.711,2.289-1.708-2.285A2.332,2.332,0,0,1,46.086,24.856Zm15.819,3.369a14.049,14.049,0,1,1-28.1,0,13.91,13.91,0,0,1,.323-2.889l1.536-.5a1.6,1.6,0,0,1,1.672.772,3.253,3.253,0,0,0,.583.736L39,27.363a2.431,2.431,0,0,0,1.023.574l.126.034a1.4,1.4,0,0,1,.974.972l.58,2.094a2.838,2.838,0,0,0,.48.967l1.757,2.306a1.426,1.426,0,0,1,.271.628l.48,2.88a1.205,1.205,0,0,0,1.658.915,1.61,1.61,0,0,0,.978-1.32,2.178,2.178,0,0,1,.492-1.171l.509-.613a1.86,1.86,0,0,0,.349-.644l.523-1.7a1.722,1.722,0,0,1,.6-.863l1.57-1.207a1.334,1.334,0,0,0,.2-1.921l-1.036-1.22c-.048-.056-.093-.115-.138-.177l-.28-.383.5-.664a3.078,3.078,0,0,0,.626-2.047,2.98,2.98,0,0,0-5.9-.454,2.837,2.837,0,0,0-2.029.143l-.853.457a.878.878,0,0,1-1.152-.3l-.828-1.309a1,1,0,0,1,.017-1.1,1.231,1.231,0,0,1,1.18-.534l1.254.159a1.915,1.915,0,0,0,1.895-.931,1.161,1.161,0,0,1,1.15-.565l.543.069a1.909,1.909,0,0,0,1.748-.726l.479-.622a2.419,2.419,0,0,0,.072-2.863l-1.424-2.054c.163-.007.319-.011.463-.011a14.5,14.5,0,0,1,5.9,1.362,16.911,16.911,0,0,1,1.8.948L54.466,18.33a1.512,1.512,0,0,0,.175,1.743,1.923,1.923,0,0,0,1.214.644l.2.024a.99.99,0,0,1,.826.7.954.954,0,0,1-.28.989L54.65,24.148a1.861,1.861,0,0,0-.628,1.394V26a1.613,1.613,0,0,0,.741,1.36.891.891,0,0,1,.4.663l.046.456A1.49,1.49,0,0,0,56.7,29.824h1.14a2.43,2.43,0,0,0,2.225-1.455l.068-.156a.9.9,0,0,1,.786-.54l.267-.012q.065,0,.13-.009l.568-.057C61.9,27.816,61.905,28.028,61.905,28.225Zm-.086-1.435-.582.059-.086.006-.268.012a1.7,1.7,0,0,0-1.489,1.022l-.068.156a1.623,1.623,0,0,1-1.486.972H56.7a.685.685,0,0,1-.683-.619l-.046-.456a1.693,1.693,0,0,0-.77-1.261A.809.809,0,0,1,54.829,26v-.457a1.054,1.054,0,0,1,.355-.789l1.947-1.722A1.763,1.763,0,0,0,57.65,21.2a1.8,1.8,0,0,0-1.5-1.263l-.2-.024a1.117,1.117,0,0,1-.705-.374.7.7,0,0,1-.083-.808l1.065-1.826a15.094,15.094,0,0,1,2.148,1.743,2.569,2.569,0,0,0-.337,1.117,2.606,2.606,0,0,0,.518,1.7L60.2,23.652a.4.4,0,0,0,.646,0l.3-.4a22.146,22.146,0,0,1,.676,3.54Zm.012-5.809-1.312,1.755-1.309-1.751a1.8,1.8,0,0,1-.362-1.165,1.673,1.673,0,0,1,3.344,0,1.746,1.746,0,0,1-.36,1.161Z" transform="translate(0 0)" fill="#fff"/>
  </g>
</svg>
