<svg xmlns="http://www.w3.org/2000/svg" width="12" height="6" viewBox="0 0 12 6"><defs><style>.a{fill:#ffc107;}</style></defs><path class="a" d="M11.571,117.348l-5.554,5.321L.463,117.348a.269.269,0,0,0-.369.006.242.242,0,0,0,0,.347l5.739,5.5a.269.269,0,0,0,.369,0l5.739-5.5a.243.243,0,0,0,.006-.353.269.269,0,0,0-.369-.006l-.006.006Z" transform="translate(-0.02 -117.272)"/><path d="M6,123.273a.267.267,0,0,1-.185-.073L.073,117.7a.243.243,0,0,1,.006-.353.269.269,0,0,1,.362,0L6,122.67l5.554-5.321a.269.269,0,0,1,.369-.006.243.243,0,0,1,.006.353l-.006.006-5.739,5.5A.267.267,0,0,1,6,123.273Z" transform="translate(0 -117.273)"/></svg>