<svg xmlns="http://www.w3.org/2000/svg" width="30" height="30" viewBox="0 0 30 30">
  <g id="edit" transform="translate(-0.381)">
    <circle id="Ellipse_389" data-name="Ellipse 389" cx="15" cy="15" r="15" transform="translate(0.381)" fill="#b1b1b1"/>
    <path id="Path_883" data-name="Path 883" d="M21.1,3.187a2.236,2.236,0,0,0-3.093,0l-7.334,7.345a.547.547,0,0,0-.144.254l-.772,3.1a.547.547,0,0,0,.53.681.531.531,0,0,0,.132-.016l3.093-.774a.541.541,0,0,0,.254-.144L21.1,6.283a2.191,2.191,0,0,0,0-3.1Zm-8,9.56-2.062.516.515-2.065,6.067-6.076,1.546,1.549ZM20.33,5.509l-.386.387L18.4,4.347l.386-.387a1.119,1.119,0,0,1,1.546,0,1.1,1.1,0,0,1,0,1.549Z" transform="translate(-0.744 6.434)" fill="#fff"/>
  </g>
</svg>
