<svg id="maximize" xmlns="http://www.w3.org/2000/svg" width="20" height="20" viewBox="0 0 20 20">
  <path id="Path_9215" data-name="Path 9215" d="M17.708,20H2.292A2.294,2.294,0,0,1,0,17.708V2.292A2.294,2.294,0,0,1,2.292,0H17.708A2.294,2.294,0,0,1,20,2.292V17.708A2.294,2.294,0,0,1,17.708,20ZM2.292,1.25A1.043,1.043,0,0,0,1.25,2.292V17.708A1.043,1.043,0,0,0,2.292,18.75H17.708a1.043,1.043,0,0,0,1.042-1.042V2.292A1.043,1.043,0,0,0,17.708,1.25Zm0,0"/>
  <path id="Path_9216" data-name="Path 9216" d="M262.042,92a.625.625,0,0,1-.625-.625V86.582h-4.792a.625.625,0,0,1,0-1.25h5.417a.625.625,0,0,1,.625.625v5.417A.625.625,0,0,1,262.042,92Zm0,0" transform="translate(-246 -81.999)"/>
  <path id="Path_9217" data-name="Path 9217" d="M213.965,93.65a.625.625,0,0,1-.442-1.068l7.083-7.083a.625.625,0,1,1,.884.884l-7.083,7.083A.623.623,0,0,1,213.965,93.65Zm0,0" transform="translate(-205.006 -81.984)"/>
  <path id="Path_9218" data-name="Path 9218" d="M6.875,327.5a.625.625,0,0,1-.625-.625V321.25H.625a.625.625,0,0,1,0-1.25h6.25a.625.625,0,0,1,.625.625v6.25A.625.625,0,0,1,6.875,327.5Zm0,0" transform="translate(0 -307.5)"/>
</svg>
