<svg id="user-list" xmlns="http://www.w3.org/2000/svg" width="80" height="80.001" viewBox="0 0 80 80.001">
  <path id="Path_3700" data-name="Path 3700" d="M57.434,40.143a40.657,40.657,0,0,0-4.7-1.888,21.25,21.25,0,1,0-25.445.013A40.646,40.646,0,0,0,.2,68.552,9.494,9.494,0,0,0,9.484,80H47.97a3.125,3.125,0,0,0,0-6.25H9.484a3.175,3.175,0,0,1-2.5-1.188,3.265,3.265,0,0,1-.662-2.737A34.527,34.527,0,0,1,39.173,42.485q.412.016.828.016t.837-.016a34.041,34.041,0,0,1,13.913,3.3,3.125,3.125,0,0,0,2.683-5.645ZM40.763,36.231q-.38-.007-.762-.007t-.756.007a15,15,0,1,1,1.518,0Z" transform="translate(0)" fill="#206bdd"/>
  <path id="Path_5848" data-name="Path 5848" d="M2,0H17.787a2,2,0,1,1,0,4H2A2,2,0,0,1,2,0Z" transform="translate(60.213 49.298)" fill="#206bdd"/>
  <path id="Path_5847" data-name="Path 5847" d="M2,0H17.787a2,2,0,1,1,0,4H2A2,2,0,0,1,2,0Z" transform="translate(60.213 60.24)" fill="#206bdd"/>
  <path id="Path_5846" data-name="Path 5846" d="M2,0H17.787a2,2,0,1,1,0,4H2A2,2,0,0,1,2,0Z" transform="translate(60.213 70.934)" fill="#206bdd"/>
</svg>
