<svg id="add_user_icon" xmlns="http://www.w3.org/2000/svg" width="30" height="30" viewBox="0 0 30 30">
  <path id="Path_3700" data-name="Path 3700" d="M21.538,15.053a15.246,15.246,0,0,0-1.763-.708,7.969,7.969,0,1,0-9.542,0A15.242,15.242,0,0,0,.076,25.706,3.56,3.56,0,0,0,3.557,30H17.989a1.172,1.172,0,0,0,0-2.344H3.557a1.191,1.191,0,0,1-.937-.446,1.224,1.224,0,0,1-.248-1.027A12.948,12.948,0,0,1,14.69,15.932q.155.006.311.006t.314-.006a12.765,12.765,0,0,1,5.217,1.239,1.172,1.172,0,0,0,1.006-2.117Zm-6.251-1.467-.286,0-.284,0a5.625,5.625,0,1,1,.569,0Z" transform="translate(0)" fill="#fff"/>
  <path id="Path_3701" data-name="Path 3701" d="M331.961,326.395h-3.223v-3.223a1.172,1.172,0,1,0-2.344,0v3.223h-3.223a1.172,1.172,0,1,0,0,2.344h3.223v3.223a1.172,1.172,0,1,0,2.344,0v-3.223h3.223a1.172,1.172,0,1,0,0-2.344Z" transform="translate(-303.133 -303.133)" fill="#fff"/>
</svg>
