<svg id="bell_icon" xmlns="http://www.w3.org/2000/svg" width="25.263" height="30" viewBox="0 0 25.263 30">
  <path id="Path_877" data-name="Path 877" d="M14.421,5.225a.629.629,0,0,1-.632-.625V2.5a1.263,1.263,0,0,0-2.526,0V4.6A.632.632,0,0,1,10,4.6V2.5a2.526,2.526,0,0,1,5.053,0V4.6A.628.628,0,0,1,14.421,5.225Z" transform="translate(0.105 0)"/>
  <path id="Path_878" data-name="Path 878" d="M12.921,25A4.4,4.4,0,0,1,8.5,20.625a.632.632,0,0,1,1.263,0,3.158,3.158,0,0,0,6.316,0,.632.632,0,0,1,1.263,0A4.4,4.4,0,0,1,12.921,25Z" transform="translate(-0.29 5)"/>
  <path id="Path_879" data-name="Path 879" d="M25.368,25.5H3.895A1.887,1.887,0,0,1,2,23.625,1.865,1.865,0,0,1,2.663,22.2a8.654,8.654,0,0,0,3.126-6.652v-3.8a8.843,8.843,0,0,1,17.684,0v3.8a8.644,8.644,0,0,0,3.116,6.644A1.871,1.871,0,0,1,25.368,25.5ZM14.632,4.25a7.547,7.547,0,0,0-7.579,7.5v3.8a9.889,9.889,0,0,1-3.563,7.6.623.623,0,0,0,.405,1.1H25.368a.624.624,0,0,0,.411-1.1,9.9,9.9,0,0,1-3.568-7.6v-3.8a7.547,7.547,0,0,0-7.579-7.5Z" transform="translate(-2 0.75)"/>
</svg>
