<svg xmlns="http://www.w3.org/2000/svg" xmlns:xlink="http://www.w3.org/1999/xlink" width="1699.999" height="500.492" viewBox="0 0 1699.999 500.492">
  <defs>
    <clipPath id="clip-path">
      <path id="Path_10270" data-name="Path 10270" d="M1692.26,125.126c-40.961,24.91-37.3,73.145-37.3,73.145l2.68-3.049c17.556-48.883,56.316-64.606,69.976-71.072s15.115-1.7,15.115-1.7c-63.39,28.287-79.362,66.319-91.8,113.249,0,0,7.074-14.746,13.531-23.774s9.505-5.6,9.505-5.6c-2.8,1.7-2.68,7.553-2.68,7.553s12.435,4.145,34.873-5.121,30.24-36.567,40.961-64.606,23.913-30.24,23.913-30.24-10.352-3.736-26.085-3.736a100.636,100.636,0,0,0-52.659,14.946" transform="translate(-1650.93 -110.17)" fill="none"/>
    </clipPath>
    <linearGradient id="linear-gradient" x1="-7.706" y1="-0.481" x2="-7.701" y2="-0.481" gradientUnits="objectBoundingBox">
      <stop offset="0" stop-color="#009ed3"/>
      <stop offset="1" stop-color="#00c1f3"/>
    </linearGradient>
    <clipPath id="clip-path-2">
      <path id="Path_10271" data-name="Path 10271" d="M1594.582,172.974c3.2,4.932,3.657,11.339,10.781,24.043s25.517,7.5,25.517,7.5a30.276,30.276,0,0,1-.279-6.865c.189-4.842,2.1-6.756-4.573-18.194s-23.913-13.441-29.254-13.621h-.558c-4.833,0-4.723,2.381-1.634,7.144" transform="translate(-1592.401 -165.84)" fill="none"/>
    </clipPath>
    <linearGradient id="linear-gradient-2" x1="-29.206" y1="-3.053" x2="-29.182" y2="-3.053" gradientUnits="objectBoundingBox">
      <stop offset="0" stop-color="#a9d046"/>
      <stop offset="1" stop-color="#7fc34e"/>
    </linearGradient>
  </defs>
  <g id="Layer_2" data-name="Layer 2" transform="translate(0 -60.24)">
    <g id="Group_5216" data-name="Group 5216" transform="translate(493.041 256.861)">
      <path id="Path_10249" data-name="Path 10249" d="M605.2,307.51h98.253a58.786,58.786,0,0,1,22.08,3.986,50.934,50.934,0,0,1,16.839,10.851,46.83,46.83,0,0,1,10.721,16.072,51.573,51.573,0,0,1,3.7,19.4q0,16.082-6.756,27.819t-22.08,17.835v.508a30.887,30.887,0,0,1,12.245,6.257,34.016,34.016,0,0,1,7.921,10.073,48.912,48.912,0,0,1,4.464,12.634,108.825,108.825,0,0,1,1.873,13.66c.169,2.89.339,6.3.508,10.2s.468,7.871.9,11.867a83.688,83.688,0,0,0,1.993,11.618,26.592,26.592,0,0,0,4.2,9.436H722.086a44.719,44.719,0,0,1-2.68-9.565q-.9-5.231-1.534-10.96t-1-11.737q-.389-5.978-1.146-11.359-2.043-14.288-8.679-20.924t-21.7-6.636H645.265v71.2H605.2Zm40.065,82.431h43.9q13.521,0,20.545-6.118t6.975-19.928q0-13.272-6.975-19.27t-20.545-5.978h-43.9Z" transform="translate(-605.2 -307.505)" fill="#10384f"/>
      <path id="Path_10250" data-name="Path 10250" d="M816.1,432.716q.777,17.357,8.967,25.388t23.475,8.041a32.59,32.59,0,0,0,18.931-5.48q7.971-5.48,9.695-11.618h31.884q-7.712,23.525-23.535,33.967T847.235,493.5a73.733,73.733,0,0,1-28.068-5.1,59.723,59.723,0,0,1-21.183-14.3,63.59,63.59,0,0,1-13.4-21.92A80.328,80.328,0,0,1,779.86,424.1a76.84,76.84,0,0,1,4.852-27.56,63.769,63.769,0,0,1,35.143-36.8,68.422,68.422,0,0,1,27.43-5.351q16.839,0,29.353,6.506a58.617,58.617,0,0,1,20.545,17.477,71.87,71.87,0,0,1,11.608,25.009,93.289,93.289,0,0,1,2.5,29.334ZM875.054,409.8Q872.5,396.019,866,388.875t-19.778-7.144q-8.688,0-14.418,2.939a27.31,27.31,0,0,0-9.187,7.274,26.594,26.594,0,0,0-4.852,9.187,41.519,41.519,0,0,0-1.664,8.678Z" transform="translate(-605.832 -307.674)" fill="#10384f"/>
      <path id="Path_10251" data-name="Path 10251" d="M973.678,439.981H936.423l-23.485-88.559h-.508l-22.458,88.559H852.458L810.6,308.04h38.281l24.252,89.575h.508l21.94-89.575H930.8l22.459,89.326h.508l24.252-89.326h37.255Z" transform="translate(-495.972 -257.757)" fill="#10384f"/>
      <path id="Path_10252" data-name="Path 10252" d="M1139.465,398.54q.757-12.764,6.377-21.183a43.441,43.441,0,0,1,14.288-13.531,62.494,62.494,0,0,1,19.4-7.274,110.441,110.441,0,0,1,21.92-2.162,149.246,149.246,0,0,1,20.157,1.395,62.106,62.106,0,0,1,18.632,5.49,36.318,36.318,0,0,1,13.78,11.488q5.361,7.4,5.361,19.141v68.651a138.335,138.335,0,0,0,1,17.1q1,8.17,3.577,12.246h-36.747a51.016,51.016,0,0,1-1.664-6.247,53.506,53.506,0,0,1-.9-6.506,48.253,48.253,0,0,1-20.416,12.634,79.481,79.481,0,0,1-23.983,3.7,61.775,61.775,0,0,1-17.616-2.421,42.276,42.276,0,0,1-14.288-7.273,33.18,33.18,0,0,1-9.565-12.256,41.318,41.318,0,0,1-3.447-17.606q0-11.219,3.826-18.5a31.586,31.586,0,0,1,10.2-11.618,47.687,47.687,0,0,1,14.427-6.506,147.789,147.789,0,0,1,16.46-3.437q8.409-1.285,16.072-2.043a93.264,93.264,0,0,0,13.66-2.3,24.4,24.4,0,0,0,9.565-4.464q3.567-2.929,3.577-8.549,0-5.869-1.913-9.316a14.009,14.009,0,0,0-5.111-5.361,20.055,20.055,0,0,0-7.393-2.551,60.184,60.184,0,0,0-9.057-.638q-10.482,0-16.719,4.593t-7.274,15.314Zm83.7,26.793a16.121,16.121,0,0,1-5.739,3.188,58.537,58.537,0,0,1-7.4,1.913c-2.64.518-5.45.937-8.429,1.275s-5.829.767-8.549,1.285a57.449,57.449,0,0,0-8.16,1.993,24.3,24.3,0,0,0-6.766,3.448,15.942,15.942,0,0,0-4.723,5.62,17.748,17.748,0,0,0-1.784,8.29,16.862,16.862,0,0,0,1.784,8.3,13.95,13.95,0,0,0,4.852,5.1,20.448,20.448,0,0,0,7.144,2.68,45.833,45.833,0,0,0,8.419.767q10.721,0,16.59-3.577a23.913,23.913,0,0,0,8.678-8.549,27.358,27.358,0,0,0,3.447-10.083,70.592,70.592,0,0,0,.638-8.16Z" transform="translate(-607.117 -307.674)" fill="#10384f"/>
      <path id="Path_10253" data-name="Path 10253" d="M1289.12,357.987h34.445v24.5h.518a44.388,44.388,0,0,1,6.885-11.359,44.838,44.838,0,0,1,9.964-8.967,48.218,48.218,0,0,1,12.126-5.749,43.841,43.841,0,0,1,13.142-1.993,24.682,24.682,0,0,1,7.911,1.275v33.678q-2.561-.5-6.128-.887a63.758,63.758,0,0,0-6.885-.389q-9.964,0-16.849,3.318a29.314,29.314,0,0,0-11.1,9.067A36.209,36.209,0,0,0,1327.172,414a73.193,73.193,0,0,0-1.783,16.46v59.464H1289.15Z" transform="translate(-607.673 -307.674)" fill="#10384f"/>
      <path id="Path_10254" data-name="Path 10254" d="M1477.548,472.89h-.518a37.982,37.982,0,0,1-16.839,15.564,54.632,54.632,0,0,1-23.226,4.852q-15.065,0-26.155-5.869a53.8,53.8,0,0,1-18.373-15.693,70.747,70.747,0,0,1-10.96-22.588,95.055,95.055,0,0,1-3.7-26.544,89.233,89.233,0,0,1,3.7-25.647,66.759,66.759,0,0,1,10.96-21.821,54.614,54.614,0,0,1,18.244-15.185q10.96-5.739,25.517-5.739a51.941,51.941,0,0,1,22.339,4.982,38.928,38.928,0,0,1,16.709,14.677h.508V307.52H1512V489.729h-34.455Zm-.518-49.51a79.715,79.715,0,0,0-1.524-15.574,38.564,38.564,0,0,0-5.231-13.391,29.055,29.055,0,0,0-9.7-9.316,28.188,28.188,0,0,0-14.667-3.577q-8.967,0-15.055,3.577a28.277,28.277,0,0,0-9.834,9.446,41.928,41.928,0,0,0-5.361,13.391A72.746,72.746,0,0,0,1414,423.629a67.446,67.446,0,0,0,1.784,15.314,41.85,41.85,0,0,0,5.749,13.66,31.825,31.825,0,0,0,9.964,9.695,26.9,26.9,0,0,0,14.428,3.7q8.967,0,14.946-3.567a27.2,27.2,0,0,0,9.575-9.575,43.24,43.24,0,0,0,5.1-13.651,80.834,80.834,0,0,0,1.525-15.823" transform="translate(-607.994 -307.505)" fill="#10384f"/>
      <path id="Path_10255" data-name="Path 10255" d="M1567.925,447.024a19.927,19.927,0,0,0,2.421,10.083,21.111,21.111,0,0,0,6.257,6.885,26.753,26.753,0,0,0,8.8,3.986,41.663,41.663,0,0,0,10.342,1.275,38.661,38.661,0,0,0,8.041-.9,27.561,27.561,0,0,0,7.652-2.81,17.209,17.209,0,0,0,5.739-5.1,13.373,13.373,0,0,0,2.3-8.041,9.784,9.784,0,0,0-2.81-6.975,24.8,24.8,0,0,0-8.041-5.231,81.484,81.484,0,0,0-12.883-4.215q-7.672-1.913-17.357-3.986-7.9-1.774-15.434-4.215a52.428,52.428,0,0,1-13.4-6.377,30.965,30.965,0,0,1-9.446-9.964q-3.577-5.978-3.577-14.677,0-12.495,4.982-20.795a36.306,36.306,0,0,1,13.142-13,57.541,57.541,0,0,1,18.373-6.636,112.5,112.5,0,0,1,20.924-1.913,105.011,105.011,0,0,1,20.8,1.993,55.32,55.32,0,0,1,17.995,6.895,41.359,41.359,0,0,1,13.142,12.883q5.231,8.041,6.248,20.3h-34.445q-.767-10.462-7.9-14.169a36.279,36.279,0,0,0-16.849-3.7,61.472,61.472,0,0,0-6.636.379,22.053,22.053,0,0,0-6.506,1.664,13.262,13.262,0,0,0-4.982,3.7,9.755,9.755,0,0,0-1.993,6.506,9.963,9.963,0,0,0,3.567,7.911,27.541,27.541,0,0,0,9.316,4.982,117.725,117.725,0,0,0,13.142,3.448q7.4,1.524,15.055,3.318a151.571,151.571,0,0,1,15.444,4.334,50.966,50.966,0,0,1,13.4,6.765,32.609,32.609,0,0,1,9.436,10.462q3.577,6.247,3.577,15.434,0,13.013-5.231,21.821a41.846,41.846,0,0,1-13.65,14.169,57.791,57.791,0,0,1-19.27,7.652,106.133,106.133,0,0,1-22.08,2.3,109.128,109.128,0,0,1-22.459-2.3,57.331,57.331,0,0,1-19.519-7.782,44.46,44.46,0,0,1-14.039-14.418q-5.49-8.967-5.978-21.92Z" transform="translate(-608.557 -307.674)" fill="#10384f"/>
    </g>
    <g id="Group_5217" data-name="Group 5217" transform="translate(0 140.778)">
      <path id="Path_10256" data-name="Path 10256" d="M308.55,253.53h24.192a4.842,4.842,0,1,0,0-9.675H308.55Zm0,23.515h24.91a5.54,5.54,0,0,0,0-11.07H308.55Zm38.859-17.815a17.636,17.636,0,0,1-12.275,30.27H294.72V231.4h39.8a16.939,16.939,0,0,1,12.953,27.829" transform="translate(-111.037 -191.146)" fill="#10384f"/>
      <path id="Path_10257" data-name="Path 10257" d="M356.74,358.939H341.894l-4.683-9.685H304.7l-4.683,9.685H285.18l29.035-58.079h13.471Zm-35.78-43.223-10.2,21.093h20.406Z" transform="translate(-111.002 -191.397)" fill="#10384f"/>
      <path id="Path_10258" data-name="Path 10258" d="M230.306,321.71h16.64l-29.453,37.813v20.266h-13.83V359.523L174.21,321.71h16.64l19.728,26.444Z" transform="translate(-0.63 -141.723)" fill="#10384f"/>
      <path id="Path_10259" data-name="Path 10259" d="M307.609,321.71v12.445H268.89v9.685h37.334v12.435H268.89v11.07h38.719v12.445H255.06V321.71Z" transform="translate(-0.922 -141.723)" fill="#10384f"/>
      <path id="Path_10260" data-name="Path 10260" d="M460.962,407.6H450.59v22.13H436.76V371.64h35.322a17.995,17.995,0,0,1,4.982,35.252l17.048,22.837h-16.56Zm9.715-23.5H450.59v11.06h20.087a5.53,5.53,0,0,0,0-11.06" transform="translate(-111.55 -191.653)" fill="#10384f"/>
      <path id="Path_10261" data-name="Path 10261" d="M290.8,429.729H275.954l-4.673-9.685h-32.5l-4.683,9.685H219.25l29.045-58.089h13.461ZM255.03,386.5l-10.213,21.1h20.406Z" transform="translate(-110.764 -191.653)" fill="#10384f"/>
      <path id="Path_10262" data-name="Path 10262" d="M167.08,393.81h24.182a4.842,4.842,0,1,0,0-9.685H167.08Zm0,23.515h24.91a5.54,5.54,0,1,0,0-11.08H167.08ZM205.939,399.5a17.646,17.646,0,0,1-12.236,30.29H153.24V371.67h39.8A16.939,16.939,0,0,1,205.989,399.5" transform="translate(-110.525 -191.653)" fill="#10384f"/>
      <path id="Path_10263" data-name="Path 10263" d="M236.9,392.5v12.445H198.17v9.685l37.344-.01v12.445H198.17v11.07H236.9v12.445H184.34V392.5Z" transform="translate(-0.667 -141.979)" fill="#10384f"/>
      <path id="Path_10264" data-name="Path 10264" d="M337.564,532.595a5.53,5.53,0,0,0-5.48-5.54H308.54v11.06h23.545a5.54,5.54,0,0,0,5.48-5.52M294.72,572.689V514.6h38.8a18.015,18.015,0,0,1,6.686,34.684l17.447,23.405h-16.61l-16.6-22.13H308.5v22.13Z" transform="translate(-111.037 -192.17)" fill="#10384f"/>
      <path id="Path_10265" data-name="Path 10265" d="M529.919,387.975C523.193,278.064,431.944,191,320.349,191S117.506,278.064,110.79,387.975c.269,4.4.658,8.778,1.2,13.1A210.038,210.038,0,0,0,320.349,584.94c-97.058,0-176.8-75.566-183.494-170.95-.3-4.3-.468-8.639-.468-13.013s.169-8.708.468-13c6.7-95.344,86.436-170.95,183.494-170.95A209.976,209.976,0,0,1,528.712,401.07c.529,4.282.938,8.576,1.207,12.96.259-4.3.409-8.639.409-13.013s-.149-8.7-.409-13" transform="translate(-110.372 -191)" fill="#a9d046"/>
      <path id="Path_10266" data-name="Path 10266" d="M110.788,414.085C117.5,524,208.753,611.05,320.348,611.05S523.192,524,529.917,414.085q-.409-6.606-1.206-13.112A210.008,210.008,0,0,0,320.348,217.12c97.068,0,176.8,75.566,183.5,170.95.3,4.3.458,8.629.458,13.013s-.159,8.708-.468,13c-6.7,95.394-86.426,170.95-183.494,170.95A209.95,209.95,0,0,1,111.993,400.965q-.8-6.385-1.2-12.9c-.269,4.3-.418,8.639-.418,13.013s.149,8.7.418,13" transform="translate(-110.37 -191.094)" fill="#00c1f3"/>
    </g>
    <g id="Group_5218" data-name="Group 5218" transform="translate(1367.549 164.442)">
      <path id="Path_10267" data-name="Path 10267" d="M1816.054,267.18a83,83,0,0,1-133.924,65.562,85.32,85.32,0,0,0,115.3-117.992,82.82,82.82,0,0,1,18.622,52.43" transform="translate(-1483.603 -214.75)" fill="#00c1f3"/>
      <path id="Path_10268" data-name="Path 10268" d="M1776.533,271.486V276.6a11.16,11.16,0,0,1-11.159,11.16H1746.5a9.565,9.565,0,0,0-9.565,9.575v18.852a11.169,11.169,0,0,1-11.169,11.159h-5.082a11.17,11.17,0,0,1-11.17-11.16V297.332a9.565,9.565,0,0,0-9.565-9.575H1681.1a11.17,11.17,0,0,1-11.17-11.16v-5.111a11.16,11.16,0,0,1,11.169-11.159h18.852a9.565,9.565,0,0,0,9.565-9.575V231.9a11.159,11.159,0,0,1,11.17-11.159h5.081a11.159,11.159,0,0,1,11.169,11.159v18.852a9.565,9.565,0,0,0,9.565,9.575h18.871a11.149,11.149,0,0,1,11.159,11.159" transform="translate(-1483.559 -214.772)" fill="#10384f"/>
      <path id="Path_10269" data-name="Path 10269" d="M1794.15,340.693a97.964,97.964,0,0,1-65.462,20.406c-51.652-2.73-92.743-45.953-93-97.646a98.3,98.3,0,0,1,3.537-26.753,2.072,2.072,0,0,0-3.856-1.485,97.986,97.986,0,0,0-10.741,47.159c0,1,.09,2.063.15,3.1V285.3s-.379,5.978-.747,7.682-2.8,1.1-5.48-.488-17.008-12.953-45.176-20.844a243.632,243.632,0,0,0-51.663-8.13,10.4,10.4,0,0,1-5.569-1.933s34.564-7.861,89.425,17.377c0,0,1.216-1.714-.558-6.1s-25.717-30.718-47.667-32.183-36.866.428-54.183,11.219-19.111,13.621-19.838,15.723-1.285,3.567,4.753,3.836,25.677,9.306,28.068,11.07c3.776,2.77,25.966,23.305,44.618,24.591s29.075-5.121,33.877-9.147,5.181-6.975,5.978-7.612,1.883-1.584,7.134,1.644,18.672,9.765,23.156,22.678l.05.13c.15.389.279.777.438,1.156l.13.329a98.423,98.423,0,0,0,166,27.9,2.391,2.391,0,0,0-3.278-3.448" transform="translate(-1482.882 -214.82)" fill="#a9d046"/>
    </g>
    <g id="Group_5213" data-name="Group 5213" transform="translate(1534.989 60.24)" clip-path="url(#clip-path)">
      <rect id="Rectangle_5701" data-name="Rectangle 5701" width="173.61" height="173.7" transform="translate(-62.826 61.057) rotate(-44.27)" fill="url(#linear-gradient)"/>
    </g>
    <g id="Group_5214" data-name="Group 5214" transform="translate(1476.671 115.709)" clip-path="url(#clip-path-2)">
      <rect id="Rectangle_5702" data-name="Rectangle 5702" width="41.32" height="43.901" transform="translate(-1.017 0.01)" fill="url(#linear-gradient-2)"/>
    </g>
  </g>
</svg>
