<svg xmlns="http://www.w3.org/2000/svg" width="18" height="18" viewBox="0 0 18 18">
  <g id="calendar" transform="translate(-10 -9.9)">
    <path id="Fill-133" d="M-3.873-448.324H-18.208A1.81,1.81,0,0,1-20-450.12V-463.3a1.663,1.663,0,0,1,1.507-1.8h.9v1.184h-.9c-.122,0-.285.245-.285.612v13.184a.627.627,0,0,0,.611.612H-3.833a.627.627,0,0,0,.611-.612V-463.3c0-.367-.2-.612-.285-.612h-.9V-465.1h.9A1.691,1.691,0,0,1-2-463.3v13.184a1.94,1.94,0,0,1-1.873,1.8" transform="translate(30 476.225)" fill="#adadad"/>
    <path id="Fill-134" d="M-10.589-464.467a.627.627,0,0,1-.611-.612v-2.408a.627.627,0,0,1,.611-.612.627.627,0,0,1,.611.612v2.408a.657.657,0,0,1-.611.612" transform="translate(24.784 478)" fill="#adadad"/>
    <path id="Fill-135" d="M12.811-464.467a.627.627,0,0,1-.611-.612v-2.408a.627.627,0,0,1,.611-.612.627.627,0,0,1,.611.612v2.408a.627.627,0,0,1-.611.612" transform="translate(10.913 478)" fill="#adadad"/>
    <path id="Fill-136" d="M-5.3-465.1H.646v1.224H-5.3Z" transform="translate(21.286 476.225)" fill="#adadad"/>
    <path id="Fill-137" d="M-17.1-456.3H-1.543v1.224H-17.1Z" transform="translate(28.281 471.016)" fill="#adadad"/>
    <path id="Fill-138" d="M15.2-450.4h1.181v1.184H15.2Z" transform="translate(9.135 467.524)" fill="#adadad"/>
    <path id="Fill-139" d="M9.3-450.4h1.222v1.184H9.3Z" transform="translate(11.003 467.524)" fill="#adadad"/>
    <path id="Fill-142" d="M-8.3-450.4h1.222v1.184H-8.3Z" transform="translate(24.694 467.524)" fill="#adadad"/>
    <path id="Fill-143" d="M15.2-444.5h1.181v1.184H15.2Z" transform="translate(9.135 464.033)" fill="#adadad"/>
    <path id="Fill-144" d="M9.3-444.5h1.222v1.184H9.3Z" transform="translate(11.003 464.033)" fill="#adadad"/>
    <path id="Fill-147" d="M-8.3-444.5h1.222v1.184H-8.3Z" transform="translate(24.694 464.033)" fill="#adadad"/>
    <path id="Fill-148" d="M-14.1-444.5h1.181v1.184H-14.1Z" transform="translate(26.503 464.033)" fill="#adadad"/>
    <path id="Fill-149" d="M15.2-438.7h1.181v1.224H15.2Z" transform="translate(9.135 460.6)" fill="#adadad"/>
    <path id="Fill-150" d="M9.3-438.7h1.222v1.224H9.3Z" transform="translate(11.003 460.6)" fill="#adadad"/>
    <path id="Fill-153" d="M-8.3-438.7h1.222v1.224H-8.3Z" transform="translate(24.694 460.6)" fill="#adadad"/>
    <path id="Fill-154" d="M-14.1-438.7h1.181v1.224H-14.1Z" transform="translate(26.503 460.6)" fill="#adadad"/>
    <path id="Fill-155" d="M9.3-432.8h1.222v1.184H9.3Z" transform="translate(11.003 457.108)" fill="#adadad"/>
    <path id="Fill-158" d="M-8.3-432.8h1.222v1.184H-8.3Z" transform="translate(24.694 457.108)" fill="#adadad"/>
    <path id="Fill-159" d="M-14.1-432.8h1.181v1.184H-14.1Z" transform="translate(26.503 457.108)" fill="#adadad"/>
  </g>
</svg>
