<svg id="check" xmlns="http://www.w3.org/2000/svg" width="28" height="28" viewBox="0 0 28 28">
  <path id="Path_5642" data-name="Path 5642" d="M24.792,28H3.208A3.211,3.211,0,0,1,0,24.792V3.208A3.211,3.211,0,0,1,3.208,0H24.792A3.211,3.211,0,0,1,28,3.208V24.792A3.211,3.211,0,0,1,24.792,28Z" fill="#89d329"/>
  <path id="Path_5641" data-name="Path 5641" d="M166.994,204.218a1.3,1.3,0,0,1-.926-.384l-5.68-5.679a1.311,1.311,0,1,1,1.854-1.854L167,201.054l8.685-8.685a1.311,1.311,0,0,1,1.854,1.854l-9.611,9.611A1.314,1.314,0,0,1,166.994,204.218Zm0,0" transform="translate(-155.2 -184.488)" fill="#fff"/>
</svg>
