<svg xmlns="http://www.w3.org/2000/svg" width="30" height="33.273" viewBox="0 0 30 33.273">
  <g id="coach_walker_icon" transform="translate(-3.185 -1)">
    <path id="Path_953" data-name="Path 953" d="M33.185,33.593a.682.682,0,0,0-.2-.481.668.668,0,0,0-.476-.2H29.179v-3.5A6.644,6.644,0,0,0,24.42,23.04a8.018,8.018,0,0,0-1.8-.253h-.178A8.073,8.073,0,0,1,21.182,21.4a7.1,7.1,0,0,0,1.552-2.023,9.062,9.062,0,0,0,2.807-6.668A8.764,8.764,0,0,0,21.1,4.863a3.387,3.387,0,0,0,.05-.591,3.239,3.239,0,1,0-6.477,0,3.387,3.387,0,0,0,.054.591,8.764,8.764,0,0,0-4.442,7.842A9.1,9.1,0,0,0,13.1,19.394a7.172,7.172,0,0,0,1.546,2,7.292,7.292,0,0,1-1.276,1.4,8.379,8.379,0,0,0-1.97.253,6.644,6.644,0,0,0-4.75,6.369v3.506H3.831a.68.68,0,0,0,0,1.358H32.513a.676.676,0,0,0,.671-.68Zm-22.276-.68H7.994v-3.5a5.291,5.291,0,0,1,2.915-4.722ZM16.014,4.272a1.9,1.9,0,0,1,3.79,0v.074a6.748,6.748,0,0,0-3.79,0ZM12.089,15.435a8.077,8.077,0,0,1-.464-2.727c0-4.168,2.957-7.272,6.284-7.272s6.284,3.115,6.284,7.272a8.123,8.123,0,0,1-.457,2.709,1.863,1.863,0,0,0,.006-.2,8.23,8.23,0,0,0-.246-2.012.67.67,0,0,0-.336-.428c-.432-.228-.588.109-1.431.109a2.79,2.79,0,0,1-2.775-2.8,2.65,2.65,0,0,1,.073-.625.682.682,0,0,0-.112-.557.668.668,0,0,0-.493-.274c-.168-.013-.336-.021-.511-.021-3.327,0-5.829,2.836-5.829,6.607C12.082,15.289,12.082,15.367,12.089,15.435Zm1.338-.218c0-2.92,1.74-5.072,4.186-5.242a.661.661,0,0,0-.006.116,4.183,4.183,0,0,0,1.428,3.147,4.093,4.093,0,0,0,3.289.969c.446,3.091-1.442,7.164-4.409,7.164a3.215,3.215,0,0,1-.725-.082h-.006c-2.332-.563-3.757-3.611-3.757-6.07Zm7.413,7.89a.042.042,0,0,0-.012.019c-.041.072-2.6,4.565-2.915,5.134-.269-.473-3.1-5.469-2.924-5.153a7.813,7.813,0,0,0,.766-.943,4.5,4.5,0,0,0,2.159.564,4.564,4.564,0,0,0,2.159-.556,8.446,8.446,0,0,0,.766.937Zm2.728,9.8H12.254V24.247a8.47,8.47,0,0,1,1.77-.1l3.3,5.817a.521.521,0,0,0,.048.06.661.661,0,0,0,1.118-.059L21.8,24.145h.82a4.6,4.6,0,0,1,.947.1Zm4.268,0H24.911V24.691a5.293,5.293,0,0,1,2.924,4.72Z" transform="translate(0 0)" fill="#fff"/>
  </g>
</svg>
