<svg xmlns="http://www.w3.org/2000/svg" width="27" height="27" viewBox="0 0 27 27">
  <path id="consolidated_scan" d="M2.531,14.744a.422.422,0,0,0,.844,0A11.776,11.776,0,0,1,7.534,5.58l-.013.773a.422.422,0,0,0,.415.428h.007a.422.422,0,0,0,.422-.415l.028-1.685a.406.406,0,0,0-.008-.047A.076.076,0,0,0,8.378,4.6a.414.414,0,0,0-.1-.215.422.422,0,0,0-.3-.128L6.262,4.225a.414.414,0,0,0-.429.415.422.422,0,0,0,.415.428l.565.009A12.653,12.653,0,0,0,2.531,14.744Zm20.932-1.917-.473-.406a.422.422,0,1,0-.549.64l1.28,1.1a.422.422,0,0,0,.275.1h.051a.415.415,0,0,0,.332-.215l1.039-1.207a.422.422,0,0,0-.64-.549l-.463.538a12.261,12.261,0,0,0-5.879-9,.421.421,0,1,0-.413.734,11.4,11.4,0,0,1,5.442,8.264Zm1.006,9.089v-.432a.4.4,0,0,0-.019-.1,2.952,2.952,0,1,0-3.335,0,.4.4,0,0,0-.02.1v.432a2.633,2.633,0,0,0-2.531,2.622V25.7a1.265,1.265,0,0,0,1.266,1.264h5.906A1.265,1.265,0,0,0,27,25.7V24.539a2.633,2.633,0,0,0-2.531-2.622ZM22.781,16.85a2.11,2.11,0,0,1,1.889,1.187L23,17.564a1.877,1.877,0,0,0-1.21.064l-.861.346a2.1,2.1,0,0,1,1.855-1.124Zm-2.109,2.114a.416.416,0,0,0,.1-.019l1.334-.537a1.008,1.008,0,0,1,.663-.035l2.07.59a.411.411,0,0,0,.055,0,2.109,2.109,0,0,1-4.219,0Zm2.953,2.8v.137a.844.844,0,0,1-1.687,0v-.137a2.657,2.657,0,0,0,1.688,0ZM26.156,25.7a.422.422,0,0,1-.422.421H19.828a.422.422,0,0,1-.422-.421V24.539a1.793,1.793,0,0,1,1.793-1.79h.129a1.673,1.673,0,0,0,2.919-.024.41.41,0,0,0,.116.024,1.793,1.793,0,0,1,1.793,1.79ZM15.187,5.908V5.476a.4.4,0,0,0-.019-.1,2.952,2.952,0,1,0-3.335,0,.4.4,0,0,0-.02.1v.432A2.632,2.632,0,0,0,9.281,8.53V9.689a1.265,1.265,0,0,0,1.266,1.264h5.906a1.265,1.265,0,0,0,1.266-1.264V8.53a2.632,2.632,0,0,0-2.531-2.622ZM13.5.842A2.11,2.11,0,0,1,15.389,2.03l-1.674-.475a1.889,1.889,0,0,0-1.209.064l-.861.347A2.1,2.1,0,0,1,13.5.842ZM11.391,2.957a.414.414,0,0,0,.1-.019L12.825,2.4a1.025,1.025,0,0,1,.663-.035l2.07.59a.4.4,0,0,0,.054,0,2.109,2.109,0,0,1-4.219,0Zm2.953,2.8V5.9a.844.844,0,0,1-1.687,0V5.76A2.657,2.657,0,0,0,14.344,5.76Zm2.531,3.929a.422.422,0,0,1-.422.421H10.547a.422.422,0,0,1-.422-.421V8.53a1.793,1.793,0,0,1,1.793-1.79h.129a1.673,1.673,0,0,0,2.919-.024.411.411,0,0,0,.116.024,1.793,1.793,0,0,1,1.793,1.79ZM5.906,21.917v-.432a.4.4,0,0,0-.019-.1,2.952,2.952,0,1,0-3.335,0,.4.4,0,0,0-.02.1v.432A2.633,2.633,0,0,0,0,24.539V25.7a1.265,1.265,0,0,0,1.266,1.264H7.172A1.265,1.265,0,0,0,8.437,25.7V24.539a2.633,2.633,0,0,0-2.531-2.622ZM4.219,16.85a2.11,2.11,0,0,1,1.889,1.187l-1.673-.474a1.877,1.877,0,0,0-1.21.064l-.861.346A2.1,2.1,0,0,1,4.219,16.85ZM2.109,18.964a.416.416,0,0,0,.1-.019l1.337-.536a1.008,1.008,0,0,1,.663-.035l2.07.59a.412.412,0,0,0,.055,0,2.109,2.109,0,0,1-4.219,0Zm2.953,2.8v.137a.844.844,0,0,1-1.687,0v-.137a2.915,2.915,0,0,0,.844.137,2.915,2.915,0,0,0,.844-.137ZM7.594,25.7a.422.422,0,0,1-.422.421H1.266A.422.422,0,0,1,.844,25.7V24.539a1.793,1.793,0,0,1,1.793-1.79h.129a1.673,1.673,0,0,0,2.919-.024.41.41,0,0,0,.116.024,1.793,1.793,0,0,1,1.793,1.79ZM17,24.579a9.173,9.173,0,0,1-5.475.478l.656-.535a.422.422,0,1,0-.533-.653l-1.277,1.039a.408.408,0,0,0-.125.139.238.238,0,0,0-.018.032.387.387,0,0,0-.022.04.393.393,0,0,0-.006.053.409.409,0,0,0-.01.09.4.4,0,0,0,0,.046.4.4,0,0,0,.038.13h0a.4.4,0,0,0,.044.084l1.066,1.307a.422.422,0,1,0,.654-.532l-.287-.351a9.838,9.838,0,0,0,5.61-.59.421.421,0,1,0-.323-.779Z" transform="translate(0 0.005)" fill="#fff"/>
</svg>
