<svg id="corn_products" xmlns="http://www.w3.org/2000/svg" width="43" height="43" viewBox="0 0 43 43">
  <g id="Ellipse_418" data-name="Ellipse 418" fill="#fff" stroke="#00bcff" stroke-width="0.5">
    <circle cx="21.5" cy="21.5" r="21.5" stroke="none"/>
    <circle cx="21.5" cy="21.5" r="21.25" fill="none"/>
  </g>
  <g id="corn" transform="translate(10.75 10.75)">
    <g id="Group_3662" data-name="Group 3662" transform="translate(10.637 14.777)">
      <g id="Group_3661" data-name="Group 3661" transform="translate(0 0)">
        <path id="Path_5328" data-name="Path 5328" d="M253.99,351.927a.42.42,0,1,0,0,.594A.421.421,0,0,0,253.99,351.927Z" transform="translate(-253.273 -351.804)" fill="#fbcb2e" stroke="#fbcb2e" stroke-width="0.3"/>
      </g>
    </g>
    <g id="Group_3664" data-name="Group 3664" transform="translate(4.285 15.858)">
      <g id="Group_3663" data-name="Group 3663" transform="translate(0 0)">
        <path id="Path_5329" data-name="Path 5329" d="M107.7,377.677a.42.42,0,0,0-.593-.038c-1.878,1.649-3.7,1.907-4.675,1.63a.421.421,0,0,0-.229.811,3.564,3.564,0,0,0,.988.126,5.271,5.271,0,0,0,1.5-.229,8.023,8.023,0,0,0,2.974-1.7.422.422,0,0,0,.144-.29A.427.427,0,0,0,107.7,377.677Z" transform="translate(-101.893 -377.534)" fill="#fbcb2e" stroke="#fbcb2e" stroke-width="0.3"/>
      </g>
    </g>
    <g id="Group_3666" data-name="Group 3666" transform="translate(0 0)">
      <g id="Group_3665" data-name="Group 3665" transform="translate(0 0)">
        <path id="Path_5330" data-name="Path 5330" d="M20.956,4.784c.734-2.024.723-3.433-.03-4.187S18.793-.169,16.8.542a24.134,24.134,0,0,0-5.11,2.7A21.69,21.69,0,0,0,9.3,5.123,7.2,7.2,0,0,0,7.929,3.182a.42.42,0,0,0-.643.535c.157.228.182.862-.263,1.9a16.017,16.017,0,0,1-3,4.278c-1.8,1.969-3.181,4.667-2.6,7.228L.367,18.181a1.262,1.262,0,0,0,0,1.782L1.554,21.15a1.259,1.259,0,0,0,1.781,0L4.388,20.1c2.459.555,5.141-.712,7.005-2.444a16.654,16.654,0,0,1,4.42-3.154c1.073-.471,1.728-.45,1.957-.289a.42.42,0,0,0,.535-.643,5.923,5.923,0,0,0-1.973-1.277A21.643,21.643,0,0,0,18.18,9.96a24.272,24.272,0,0,0,2.776-5.176ZM2.744,20.561a.42.42,0,0,1-.594,0L.962,19.373a.42.42,0,0,1,0-.594l.761-.761a3.662,3.662,0,0,0,.682,1.016A3.639,3.639,0,0,0,3.5,19.8Zm13.871-7.212a6.027,6.027,0,0,0-1.136.381,18.006,18.006,0,0,0-4.653,3.31c-2.9,2.69-6.306,2.921-7.785,1.442A3.054,3.054,0,0,1,2.3,17.142c-.552-1.958.326-4.459,2.352-6.678A17.345,17.345,0,0,0,7.8,5.948a5.784,5.784,0,0,0,.366-1.142,6.645,6.645,0,0,1,.9,2.2,6.928,6.928,0,0,1-.435,3.689,12.845,12.845,0,0,1-2.6,4.178.42.42,0,0,0,.593.594c2.7-2.471,6-3.44,8.835-2.592a6.064,6.064,0,0,1,1.151.475ZM15.453,12a9.5,9.5,0,0,0-7.081,1.138A9.234,9.234,0,0,0,9.887,6.829a7.5,7.5,0,0,0-.245-.879,20.636,20.636,0,0,1,2.516-2.011,23.265,23.265,0,0,1,4.924-2.61C18.7.76,19.85.7,20.332,1.186s.435,1.664-.164,3.306a23.408,23.408,0,0,1-2.674,4.993A20.5,20.5,0,0,1,15.452,12Z" transform="translate(0.002 -0.019)" fill="#fbcb2e" stroke="#fbcb2e" stroke-width="0.3"/>
      </g>
    </g>
    <g id="Group_3668" data-name="Group 3668" transform="translate(10.644 6.48)">
      <g id="Group_3667" data-name="Group 3667" transform="translate(0 0)">
        <path id="Path_5331" data-name="Path 5331" d="M254.747,154.971l-.593-.593a.419.419,0,1,0-.593.593l.593.593a.42.42,0,0,0,.593-.593Z" transform="translate(-253.438 -154.254)" fill="#fbcb2e" stroke="#fbcb2e" stroke-width="0.3"/>
      </g>
    </g>
    <g id="Group_3670" data-name="Group 3670" transform="translate(13.612 9.449)">
      <g id="Group_3669" data-name="Group 3669" transform="translate(0 0)">
        <path id="Path_5332" data-name="Path 5332" d="M325.441,225.665l-.594-.594a.419.419,0,0,0-.592.594l.592.594a.42.42,0,0,0,.594-.594Z" transform="translate(-324.132 -224.948)" fill="#fbcb2e" stroke="#fbcb2e" stroke-width="0.3"/>
      </g>
    </g>
    <g id="Group_3672" data-name="Group 3672" transform="translate(13.315 6.777)">
      <g id="Group_3671" data-name="Group 3671" transform="translate(0 0)">
        <path id="Path_5333" data-name="Path 5333" d="M318.372,162.038l-.594-.593a.42.42,0,0,0-.594.593l.594.594a.42.42,0,1,0,.594-.594Z" transform="translate(-317.061 -161.322)" fill="#fbcb2e" stroke="#fbcb2e" stroke-width="0.3"/>
      </g>
    </g>
    <g id="Group_3674" data-name="Group 3674" transform="translate(10.94 9.152)">
      <g id="Group_3673" data-name="Group 3673" transform="translate(0 0)">
        <path id="Path_5334" data-name="Path 5334" d="M261.816,218.6l-.6-.593a.42.42,0,1,0-.594.593l.594.594a.421.421,0,0,0,.6-.594Z" transform="translate(-260.505 -217.879)" fill="#fbcb2e" stroke="#fbcb2e" stroke-width="0.3"/>
      </g>
    </g>
    <g id="Group_3676" data-name="Group 3676" transform="translate(15.69 4.401)">
      <g id="Group_3675" data-name="Group 3675" transform="translate(0 0)">
        <path id="Path_5335" data-name="Path 5335" d="M374.932,105.48l-.594-.593a.421.421,0,0,0-.6.593l.6.594a.42.42,0,1,0,.594-.594Z" transform="translate(-373.62 -104.764)" fill="#fbcb2e" stroke="#fbcb2e" stroke-width="0.3"/>
      </g>
    </g>
    <g id="Group_3678" data-name="Group 3678" transform="translate(17.472 2.62)">
      <g id="Group_3677" data-name="Group 3677" transform="translate(0 0)">
        <path id="Path_5336" data-name="Path 5336" d="M417.342,63.072l-.594-.594a.42.42,0,0,0-.594.594l.594.594a.42.42,0,0,0,.594-.594Z" transform="translate(-416.031 -62.355)" fill="#fbcb2e" stroke="#fbcb2e" stroke-width="0.3"/>
      </g>
    </g>
    <g id="Group_3680" data-name="Group 3680" transform="translate(13.018 4.104)">
      <g id="Group_3679" data-name="Group 3679" transform="translate(0 0)">
        <path id="Path_5337" data-name="Path 5337" d="M311.307,98.413l-.594-.594a.421.421,0,0,0-.6.594l.6.594a.421.421,0,0,0,.594,0A.425.425,0,0,0,311.307,98.413Z" transform="translate(-309.995 -97.696)" fill="#fbcb2e" stroke="#fbcb2e" stroke-width="0.3"/>
      </g>
    </g>
    <g id="Group_3682" data-name="Group 3682" transform="translate(15.986 7.073)">
      <g id="Group_3681" data-name="Group 3681" transform="translate(0 0)">
        <path id="Path_5338" data-name="Path 5338" d="M382,169.106l-.594-.593a.42.42,0,0,0-.594.593l.594.594a.42.42,0,1,0,.594-.594Z" transform="translate(-380.688 -168.39)" fill="#fbcb2e" stroke="#fbcb2e" stroke-width="0.3"/>
      </g>
    </g>
  </g>
</svg>
