<svg id="cp_products" xmlns="http://www.w3.org/2000/svg" width="43" height="43" viewBox="0 0 43 43">
  <g id="Ellipse_418" data-name="Ellipse 418" fill="#fff" stroke="#00bcff" stroke-width="0.5">
    <circle cx="21.5" cy="21.5" r="21.5" stroke="none"/>
    <circle cx="21.5" cy="21.5" r="21.25" fill="none"/>
  </g>
  <g id="pesticide_2_" data-name="pesticide (2)" transform="translate(13.569 8.6)">
    <path id="Path_9204" data-name="Path 9204" d="M110.276,13.841a.378.378,0,1,0-.665.359,13.388,13.388,0,0,1,1.6,6.333v2.873a1.64,1.64,0,0,1-1.638,1.638H98.486a1.64,1.64,0,0,1-1.638-1.638V20.76a13.348,13.348,0,0,1,4.428-9.926h5.751a13.353,13.353,0,0,1,1.813,2.11.378.378,0,0,0,.622-.43,14.115,14.115,0,0,0-1.612-1.933,1.385,1.385,0,0,0-.42-2.465v-.3h1.313a1.386,1.386,0,0,0,2.719-.378V5.417a1.386,1.386,0,0,0-2.719-.378h-1.365a1.388,1.388,0,0,0-1.333-1.008h-.63V2.771h1.638a1.386,1.386,0,0,0,0-2.771h-6.047a1.386,1.386,0,0,0,0,2.771h1.638v1.26h-1.68a6.856,6.856,0,0,0-1.978.3.378.378,0,1,0,.223.722,6.1,6.1,0,0,1,1.419-.258V6.047h-.839a3.6,3.6,0,0,0-2.565,1.063.378.378,0,1,1-.534-.534,6.105,6.105,0,0,1,1.239-.955.378.378,0,0,0-.381-.653,6.864,6.864,0,0,0-1.392,1.074,1.134,1.134,0,0,0,1.6,1.6A2.853,2.853,0,0,1,99.789,6.8h.839V8.115a1.385,1.385,0,0,0-.28,2.552A14.1,14.1,0,0,0,96.093,20.76v2.647A2.4,2.4,0,0,0,98.486,25.8h11.086a2.4,2.4,0,0,0,2.394-2.394V20.533a14.146,14.146,0,0,0-1.69-6.692Zm-2.845-8.046h1.26v1.26h-1.26Zm2.016-.378a.63.63,0,0,1,1.26,0V7.433a.63.63,0,1,1-1.26,0Zm-9.07-4.031a.631.631,0,0,1,.63-.63h6.047a.63.63,0,0,1,0,1.26h-6.047A.631.631,0,0,1,100.376,1.386ZM103.4,2.771h1.26v1.26H103.4Zm2.646,2.016a.631.631,0,0,1,.63.63V8.062h-5.291V4.787Zm-5.039,4.031h6.047a.63.63,0,0,1,0,1.26h-6.047a.63.63,0,0,1,0-1.26Z" transform="translate(-95.823)" fill="#a87046"/>
    <path id="Path_9205" data-name="Path 9205" d="M187.572,308.133a.378.378,0,1,0,0-.756h-.835a3.9,3.9,0,0,0-.264-1.1,1.566,1.566,0,0,0,.879-1.413.378.378,0,0,0-.756,0,.813.813,0,0,1-.479.745,2.471,2.471,0,0,0-4.262,0,.825.825,0,0,1-.48-.744.378.378,0,1,0-.756,0,1.564,1.564,0,0,0,.879,1.413,3.9,3.9,0,0,0-.264,1.1H180.4a.378.378,0,0,0,0,.756h.835a3.9,3.9,0,0,0,.264,1.1,1.564,1.564,0,0,0-.879,1.413.378.378,0,1,0,.756,0,.824.824,0,0,1,.48-.744,2.471,2.471,0,0,0,4.261,0,.824.824,0,0,1,.48.744.378.378,0,1,0,.756,0,1.586,1.586,0,0,0-.88-1.411,3.9,3.9,0,0,0,.265-1.1h.835Zm-3.586,2.232a2.7,2.7,0,1,1,2.012-2.61A2.373,2.373,0,0,1,183.986,310.365Z" transform="translate(-175.78 -289.051)" fill="#a87046"/>
    <path id="Path_9206" data-name="Path 9206" d="M266.556,340.039a.378.378,0,0,0-.378.378v.6a.378.378,0,0,0,.756,0v-.6A.378.378,0,0,0,266.556,340.039Z" transform="translate(-257.594 -322.904)" fill="#a87046"/>
    <path id="Path_9207" data-name="Path 9207" d="M236.556,340.039a.378.378,0,0,0-.378.378v.6a.378.378,0,0,0,.756,0v-.6A.378.378,0,0,0,236.556,340.039Z" transform="translate(-229.106 -322.904)" fill="#a87046"/>
  </g>
</svg>
