<svg xmlns="http://www.w3.org/2000/svg" width="20" height="19.995" viewBox="0 0 20 19.995">
  <path id="edit_icon" d="M28.676,3.6a3.727,3.727,0,0,0-5.155,0L11.3,15.843a.911.911,0,0,0-.24.423l-1.287,5.16a.912.912,0,0,0,.883,1.135.885.885,0,0,0,.221-.027l5.155-1.291a.9.9,0,0,0,.423-.24L28.676,8.761a3.651,3.651,0,0,0,0-5.16ZM15.343,19.534l-3.436.86.859-3.441L22.878,6.826l2.577,2.581ZM27.388,7.471l-.643.644L24.167,5.534l.643-.644a1.865,1.865,0,0,1,2.577,0,1.827,1.827,0,0,1,0,2.581Z" transform="translate(-9.744 -2.566)" fill="#969696"/>
</svg>
