<svg id="expand" xmlns="http://www.w3.org/2000/svg" width="10" height="10" viewBox="0 0 10 10">
  <path id="Path_9163" data-name="Path 9163" d="M222.152.7H224l-4.221,4.223a.35.35,0,1,0,.494.5L224.494,1.2V3.042a.35.35,0,1,0,.7,0V.351A.351.351,0,0,0,224.843,0h-2.691a.35.35,0,1,0,0,.7Z" transform="translate(-215.194)"/>
  <path id="Path_9164" data-name="Path 9164" d="M2.1,10H7.9A2.1,2.1,0,0,0,10,7.9V5.169a.35.35,0,0,0-.7,0V7.9A1.4,1.4,0,0,1,7.9,9.3H2.1A1.4,1.4,0,0,1,.7,7.9V2.1A1.4,1.4,0,0,1,2.1.7H4.806a.351.351,0,0,0,0-.7H2.1A2.1,2.1,0,0,0,0,2.1V7.9A2.1,2.1,0,0,0,2.1,10Z"/>
</svg>
