<svg xmlns="http://www.w3.org/2000/svg" width="85" height="83.258" viewBox="0 0 85 83.258">
  <g id="farmer" transform="translate(-0.87 -0.72)">
    <path id="Fill-222" d="M117.444,42.349A41.652,41.652,0,1,1,75.792.72a41.64,41.64,0,0,1,41.652,41.629" transform="translate(-31.574)" fill="#d9ffff" fill-rule="evenodd"/>
    <path id="Fill-223" d="M405.747,376.44l-23.813-16.173c-1.31-2.719,4.217-10.413,7.811-8.8l20.516,17.326-4.514,7.647" transform="translate(-361.454 -332.661)" fill="#ffb373" fill-rule="evenodd"/>
    <path id="Fill-224" d="M904.71,613.954l26.715-6.123V574.41l-26.715,5.255v34.289" transform="translate(-857.771 -544.449)" fill="#d97826" fill-rule="evenodd"/>
    <path id="Fill-225" d="M595.886,455.971l-11.08-3.906-8.219-2.455-25.436,4.714,18.021,6.9,26.715-5.255" transform="translate(-522.232 -426.01)" fill="#ffa04f" fill-rule="evenodd"/>
    <path id="Fill-226" d="M569.142,549V583.29L551.508,575.3l-.388-33.2,18.022,6.9" transform="translate(-522.203 -513.786)" fill="#ee8932" fill-rule="evenodd"/>
    <path id="Fill-227" d="M694.8,502.031h.009l26.287-5.218a.054.054,0,0,0,.04-.063.051.051,0,0,0-.058-.043l-26.287,5.218a.055.055,0,0,0-.04.063.052.052,0,0,0,.049.045" transform="translate(-658.509 -470.703)" fill="#9e6331" fill-rule="evenodd"/>
    <path id="Fill-228" d="M569.719,551.365a.051.051,0,0,0,.047-.037.055.055,0,0,0-.031-.069l-17.795-6.8a.048.048,0,0,0-.064.033.056.056,0,0,0,.031.069l17.795,6.8.016,0" transform="translate(-522.919 -516.018)" fill="#9e6331" fill-rule="evenodd"/>
    <path id="Fill-229" d="M673.994,600.377,671.308,599l-.188-7.144,2.874,1.1v7.418" transform="translate(-636.087 -561.009)" fill="#f6bb71" fill-rule="evenodd"/>
    <path id="Fill-230" d="M703.652,504.661l-1.472-.564,25.933-5.147,1.375.437-25.835,5.274" transform="translate(-665.564 -472.835)" fill="#ffca8e" fill-rule="evenodd"/>
    <path id="Fill-231" d="M676.758,590.206l-.878-.336.878.336" transform="translate(-640.605 -559.121)" fill="#ffd6ab" fill-rule="evenodd"/>
    <path id="Fill-232" d="M677.03,493.633l-1.15-.441L701.4,488l1.539.49-25.909,5.143" transform="translate(-640.605 -462.443)" fill="#ffca8e" fill-rule="evenodd"/>
    <path id="Fill-233" d="M676.046,590.974l-1.475-.564.135-.027,1.473.564-.132.027m-1.665-.637-1.151-.44.135-.028,1.15.441-.135.027" transform="translate(-638.09 -559.121)" fill="#f6bb71" fill-rule="evenodd"/>
    <path id="Fill-234" d="M696,502.853l-.19-.073.135-.026,25.909-5.143.214.068-25.933,5.147-.135.027" transform="translate(-659.518 -471.563)" fill="#c99f70" fill-rule="evenodd"/>
    <path id="Fill-235" d="M673.975,591.583l-2.874-1.1v-.052l.109-.022,1.151.44.19.073,1.475.564-.049.01v.086" transform="translate(-636.068 -559.633)" fill="#c99f70" fill-rule="evenodd"/>
    <path id="Fill-236" d="M566.583,786.414c-.616.85-7.643-.907-7.643-.907s5.229,3.753,4.28,4.355-5.721-1.289-5.721-1.289,3.153,2.722,2.477,2.983a9.537,9.537,0,0,1-2.087.011l-3.876-1.757-.253-21.68c7.275.541,9.082,2.162,9.087,3.191.009,2.008-3.725,1.809-4.187,3.249s7.533,4.779,9.65,8.19l-7.657-.811s6.546,3.615,5.93,4.464" transform="translate(-524.709 -728.295)" fill="#33201b" fill-rule="evenodd"/>
    <path id="Fill-237" d="M415.918,786.353c2.967-.73,7.163-.73,12.4-.147a1.712,1.712,0,0,1,.124,3.381l-.076.013c-2.542.4-3.835-1.208-6.31,1.408-3.288,3.475-7.484,1.857-8.277-.011-.531-1.253.039-4.23,2.14-4.644" transform="translate(-391.684 -745.051)" fill="#ffae69" fill-rule="evenodd"/>
    <path id="Fill-238" d="M366.038,790.96c-2.049.164-4.9,1.176-5.879,3.559-1.166,2.849-1.691,5.667,2.131,10.293,2.512,3.041,12.492,9.608,13.3,8.218.761-1.318-6.842-6.4-7.032-6.523s9.832,6.343,10.559,4.78c.894-1.922-8.653-8.3-8.91-8.515s10.9,7.065,11.836,5.309c.8-1.489-9.628-8.261-9.628-8.261s10.851,6.182,11.669,4.066-18.041-12.926-18.041-12.926" transform="translate(-340.163 -749.961)" fill="#ffae69" fill-rule="evenodd"/>
    <path id="Fill-239" d="M25.687,608.471s-23.595-11.3-23.95-11.652c-2.961-2.887,2.3-13.277,6.243-10.917l22.373,13.524-4.666,9.045" transform="translate(0 -555.027)" fill="#ffae69" fill-rule="evenodd"/>
    <path id="Fill-240" d="M1245.987,634.05v5.72l-8.057,1.784v-6.028l8.057-1.476" transform="translate(-1174.007 -601.049)" fill="#ffbf8a" fill-rule="evenodd"/>
    <path id="Fill-241" d="M916.32,986.485l2.815,17.432,13.373-3.065L920.354,986.14h-3.9l-.136.345" transform="translate(-868.789 -935.193)" fill="#33201b" fill-rule="evenodd"/>
    <path id="Fill-242" d="M916.456,986.14l-.136.345,9.9,26.432,20.963-1.525.153-.345L916.456,986.14" transform="translate(-868.789 -935.193)" fill="#d62d06" fill-rule="evenodd"/>
    <path id="Fill-243" d="M918.98,972.1l9.941,26.41,20.937-1.5L938.85,971.35l-19.87.754" transform="translate(-871.313 -921.156)" fill="#ff3305" fill-rule="evenodd"/>
    <path id="Fill-244" d="M991.619,1001.15l9.107,21.442-16.8,1.08-7.969-21.47,15.659-1.051" transform="translate(-925.389 -949.438)" fill="#fff" fill-rule="evenodd"/>
    <path id="Fill-245" d="M1014.22,965.6l1.309,3.176,12.055-.575-1.516-3.1-11.849.5" transform="translate(-961.699 -915.225)" fill-rule="evenodd"/>
    <path id="Fill-246" d="M1024.962,1066.866l-.012-.275,13.614-.581.012.275-13.614.581" transform="translate(-971.882 -1010.992)" fill="#848484" fill-rule="evenodd"/>
    <path id="Fill-247" d="M1040.022,1100.5l-.012-.275,13.614-.582.012.275-13.613.582" transform="translate(-986.174 -1042.907)" fill="#848484" fill-rule="evenodd"/>
    <path id="Fill-248" d="M1055.092,1134.136l-.012-.275,13.613-.581.012.275-13.613.581" transform="translate(-1000.477 -1074.833)" fill="#848484" fill-rule="evenodd"/>
    <path id="Fill-249" d="M1070.152,1167.766l-.012-.275,13.613-.582.012.275-13.613.582" transform="translate(-1014.769 -1106.749)" fill="#848484" fill-rule="evenodd"/>
    <path id="Fill-250" d="M1085.212,1201.406l-.012-.275,13.613-.581.011.275-13.613.581" transform="translate(-1029.062 -1138.674)" fill="#848484" fill-rule="evenodd"/>
    <path id="Fill-251" d="M1100.272,1235.036l-.012-.275,13.614-.581.012.275-13.614.581" transform="translate(-1043.354 -1170.59)" fill="#848484" fill-rule="evenodd"/>
    <path id="Fill-252" d="M1180.619,1291.029a.222.222,0,0,1-.067-.011c-.245-.078-.307-.533-.425-1.555-.109-.949-.258-2.249-.671-2.5a.286.286,0,0,0-.271-.007c-1.268.507-1.32,4.02-1.32,4.055l-.275,0c0-.152.057-3.733,1.493-4.308a.555.555,0,0,1,.514.027c.53.316.675,1.583.8,2.7a6.005,6.005,0,0,0,.226,1.3l.006-.008a7.839,7.839,0,0,0,.772-1.3c.526-1.007.865-1.623,1.21-1.589.221.021.3.28.324.365a6.748,6.748,0,0,1,.2.976c.047.313.084.561.185.622.059.035.171.024.333-.033a2.849,2.849,0,0,0,.577-.3,1.56,1.56,0,0,1,1.92-.053l-.135.24a1.3,1.3,0,0,0-1.638.046,3.071,3.071,0,0,1-.632.33.657.657,0,0,1-.566.009c-.212-.128-.256-.417-.316-.817a6.492,6.492,0,0,0-.193-.938c-.046-.15-.087-.17-.087-.17s-.1,0-.361.4c-.181.281-.383.668-.579,1.042a7.8,7.8,0,0,1-.811,1.358.3.3,0,0,1-.22.118" transform="translate(-1116.742 -1220.391)" fill="#282828" fill-rule="evenodd"/>
    <path id="Fill-253" d="M1379.565,934.625l-1.885-.689,6.582-18.026a1,1,0,1,1,1.886.689l-6.583,18.026" transform="translate(-1306.633 -867.917)" fill="#025bb3" fill-rule="evenodd"/>
    <path id="Fill-254" d="M1459.921,946.619l-2.331-.851,2.07-5.668,2.331.851-2.07,5.668" transform="translate(-1382.47 -891.499)" fill="#0076eb" fill-rule="evenodd"/>
    <path id="Fill-255" d="M1485.015,965.154h-.275a5.014,5.014,0,0,1,1.136-3.312,12.6,12.6,0,0,0,1.306-2.293c.821-1.895.83-2.659.693-2.966a.424.424,0,0,0-.3-.241l-.04-.013.094-.258.033.011a.692.692,0,0,1,.459.39c.235.528.008,1.57-.692,3.188A12.84,12.84,0,0,1,1486.1,962a4.732,4.732,0,0,0-1.087,3.157" transform="translate(-1408.237 -906.655)" fill="#025bb3" fill-rule="evenodd"/>
    <path id="Fill-256" d="M1374.78,1284.324l.556.2,1.476-1.979-1.885-.689c-.021.36-.128,2.145-.146,2.464" transform="translate(-1303.881 -1215.84)" fill-rule="evenodd"/>
    <path id="Fill-257" d="M1373.556,1320.906a.179.179,0,0,1-.106-.229c.111-.131.257-1.168.564-1.025a.179.179,0,0,1,.107.228c-.111.131-.257,1.168-.565,1.026" transform="translate(-1302.608 -1251.692)" fill-rule="evenodd"/>
  </g>
</svg>
