<svg xmlns="http://www.w3.org/2000/svg" width="20" height="20" viewBox="0 0 20 20">
  <path id="filter_icon" d="M19.634,0H1.357A.861.861,0,0,0,.592.455a.832.832,0,0,0,.068.884l6.7,9.2.007.009a1.836,1.836,0,0,1,.376,1.107v7.5a.824.824,0,0,0,.249.593A.866.866,0,0,0,8.593,20a.9.9,0,0,0,.337-.066l3.763-1.4a.8.8,0,0,0,.561-.784V11.658a1.837,1.837,0,0,1,.375-1.107l.007-.009,6.7-9.2A.831.831,0,0,0,20.4.455.861.861,0,0,0,19.634,0ZM12.79,9.949a2.843,2.843,0,0,0-.577,1.709v5.969L8.778,18.9V11.658A2.842,2.842,0,0,0,8.2,9.949L1.7,1.015H19.291Zm0,0" transform="translate(-0.496 0)" fill="#1f445a"/>
</svg>
