<svg xmlns="http://www.w3.org/2000/svg" width="31.984" height="20" viewBox="0 0 31.984 20">
  <g id="help_icon" transform="translate(0.06 0.001)">
    <path id="Path_954" data-name="Path 954" d="M20.465,12.244c-.615-1.312-2.839-3.122-4.987-4.87-1.2-.975-2.332-1.9-3.052-2.624a.653.653,0,0,0-.694-.151c-.45.167-.73.3-.945.4a2.209,2.209,0,0,1-.894.255.677.677,0,0,0-.489.3c-.952,1.426-1.921,1.313-2.57,1.1-.209-.068-.243-.158-.263-.243-.135-.587.577-1.964,1.492-2.888C10.24,1.314,11.359.759,13.7,1.8c2.658,1.183,5.32,2.1,5.35,2.112a.673.673,0,0,0,.85-.417.663.663,0,0,0-.4-.851c-.026-.009-2.639-.912-5.245-2.072C11.22-.78,9.54.139,7.133,2.57,6.216,3.5,4.966,5.363,5.274,6.721a1.616,1.616,0,0,0,1.132,1.2A3.352,3.352,0,0,0,10.32,6.54a3.38,3.38,0,0,0,1-.328c.125-.057.272-.124.466-.209.754.715,1.773,1.544,2.846,2.416,1.941,1.582,4.146,3.37,4.631,4.413a.8.8,0,0,1-.209,1.009.73.73,0,0,1-.82.169.659.659,0,0,0-.718-.018.684.684,0,0,0-.325.651.827.827,0,0,1-.515.759,1.011,1.011,0,0,1-1.036.032.66.66,0,0,0-.688-.131.684.684,0,0,0-.43.569,1.3,1.3,0,0,1-.793,1.034.692.692,0,0,1-.761-.113.66.66,0,0,0-.606-.15.681.681,0,0,0-.469.427c-.026.068-.084.228-.706.234a3.746,3.746,0,0,1-1.623-.549c-.464-.306-3.37-2.485-5.879-4.6-.353-.3-.961-.939-1.5-1.507-.477-.5-.913-.96-1.137-1.147a.659.659,0,0,0-.939.087.674.674,0,0,0,.071.945c.209.174.6.6,1.036,1.055.587.621,1.194,1.262,1.6,1.607,2.457,2.071,5.412,4.3,6,4.694a4.991,4.991,0,0,0,2.352.761,2.3,2.3,0,0,0,1.511-.461,2.051,2.051,0,0,0,1.51-.028,2.689,2.689,0,0,0,1.394-1.3,2.565,2.565,0,0,0,1.669-.257,2.321,2.321,0,0,0,1.119-1.179,2.191,2.191,0,0,0,1.528-.564A2.164,2.164,0,0,0,20.465,12.244Z" transform="translate(4.647 1.345)" fill="#fff"/>
    <path id="Path_955" data-name="Path 955" d="M6.646-.031.667.019A.681.681,0,0,0,0,.7a.655.655,0,0,0,.656.662l5.979-.05A.681.681,0,0,0,7.3.635a.655.655,0,0,0-.656-.666Z" transform="translate(6.665 2.605)" fill="#fff"/>
    <path id="Path_956" data-name="Path 956" d="M3.163.281A.654.654,0,0,0,2.242.1L.289,1.44A.68.68,0,0,0,.1,2.372a.653.653,0,0,0,.551.292.664.664,0,0,0,.37-.117l1.95-1.333A.68.68,0,0,0,3.163.281Z" transform="translate(23.908 11.865)" fill="#fff"/>
    <path id="Path_957" data-name="Path 957" d="M5.031,4.129C4.558,3.755,2.449,1.574,1.147.2A.657.657,0,0,0,.209.188a.675.675,0,0,0-.028.948C.522,1.493,3.5,4.638,4.2,5.191a.648.648,0,0,0,.41.14A.681.681,0,0,0,5.13,5.07.672.672,0,0,0,5.031,4.129Z" transform="translate(17.889 11.252)" fill="#fff"/>
    <path id="Path_958" data-name="Path 958" d="M4.375,3.466C3.584,2.831,1.6.7,1.155.209A.66.66,0,0,0,.216.177a.678.678,0,0,0-.048.949c.024.025,2.389,2.608,3.368,3.4a.654.654,0,0,0,.417.143.677.677,0,0,0,.426-1.2Z" transform="translate(15.879 13.282)" fill="#fff"/>
    <path id="Path_959" data-name="Path 959" d="M4.389,3.478C3.443,2.679,1.526.612,1.148.209A.659.659,0,0,0,.209.182a.677.677,0,0,0-.04.948c.54.584,2.378,2.555,3.35,3.381a.649.649,0,0,0,.427.154.679.679,0,0,0,.439-1.188Z" transform="translate(13.21 14.644)" fill="#fff"/>
    <path id="Path_960" data-name="Path 960" d="M7.8,1.46C6.669.383,2.118.068.751,0a.667.667,0,0,0-.5.183.685.685,0,0,0-.209.49l-.1,12.073a.655.655,0,0,0,.659.666l3.986-.033a.678.678,0,0,0,.633-.468C5.322,12.608,7.665,5.5,8,2a.66.66,0,0,0-.2-.545ZM4.112,12.041l-2.837.024L1.359,1.381a19.84,19.84,0,0,1,5.269.908,71.782,71.782,0,0,1-2.515,9.752Z" fill="#fff"/>
    <path id="Path_961" data-name="Path 961" d="M8.621-.04A20.758,20.758,0,0,0,.38,1.433.681.681,0,0,0,.088,2.4a88.3,88.3,0,0,1,3.8,10.52.652.652,0,0,0,.636.487l3.986-.033a.681.681,0,0,0,.67-.676L9.284.628A.654.654,0,0,0,8.621-.04ZM7.857,12.04l-2.825.023C4.419,10,2.608,4.612,1.584,2.388A21.636,21.636,0,0,1,7.947,1.315Z" transform="translate(22.64 1.124)" fill="#fff"/>
  </g>
</svg>
