<svg xmlns="http://www.w3.org/2000/svg" width="30" height="30" viewBox="0 0 30 30">
  <path id="home_icon" d="M29.694,13.049l0,0L17.453.809a2.762,2.762,0,0,0-3.906,0L1.314,13.04l-.012.013a2.761,2.761,0,0,0,1.838,4.705c.028,0,.057,0,.085,0h.488v9.006A3.236,3.236,0,0,0,6.945,30h4.788a.879.879,0,0,0,.879-.879V22.061a1.477,1.477,0,0,1,1.475-1.475h2.824a1.476,1.476,0,0,1,1.475,1.475v7.061a.879.879,0,0,0,.879.879h4.788a3.236,3.236,0,0,0,3.233-3.232V17.762h.452a2.762,2.762,0,0,0,1.955-4.714ZM28.449,15.71a1,1,0,0,1-.71.294H26.408a.879.879,0,0,0-.879.879v9.884a1.476,1.476,0,0,1-1.475,1.474H20.145V22.061a3.236,3.236,0,0,0-3.233-3.232H14.088a3.237,3.237,0,0,0-3.233,3.232v6.182H6.945A1.476,1.476,0,0,1,5.47,26.768V16.883A.879.879,0,0,0,4.591,16H3.283l-.041,0A1,1,0,0,1,2.55,14.29h0L14.79,2.052a1,1,0,0,1,1.42,0L28.445,14.286l.006.005A1.006,1.006,0,0,1,28.449,15.71Zm0,0" transform="translate(-0.5)" fill="#fff"/>
</svg>
