<svg id="inactive" xmlns="http://www.w3.org/2000/svg" width="20" height="20" viewBox="0 0 20 20">
  <path id="Path_9167" data-name="Path 9167" d="M17.075,2.995a10,10,0,1,0,0,14.149A10.013,10.013,0,0,0,17.075,2.995Zm-1.1,13.053a8.454,8.454,0,1,1,0-11.957A8.461,8.461,0,0,1,15.98,16.048Z" transform="translate(0 -0.069)" fill="#ff6397"/>
  <path id="Path_9168" data-name="Path 9168" d="M174.044,170.518l-2.193-2.191,2.193-2.191a.775.775,0,0,0-1.1-1.1l-2.195,2.192-2.195-2.192a.775.775,0,0,0-1.1,1.1l2.193,2.191-2.193,2.191a.775.775,0,0,0,1.1,1.1l2.195-2.192,2.195,2.192a.775.775,0,1,0,1.1-1.1Z" transform="translate(-160.703 -158.376)" fill="#ff6397"/>
</svg>
