<svg id="list_user_icon" xmlns="http://www.w3.org/2000/svg" width="24" height="24" viewBox="0 0 24 24">
  <path id="Path_3700" data-name="Path 3700" d="M17.231,12.043a12.2,12.2,0,0,0-1.411-.566,6.375,6.375,0,1,0-7.633,0A12.194,12.194,0,0,0,.061,20.566,2.848,2.848,0,0,0,2.845,24H14.391a.938.938,0,0,0,0-1.875H2.845a.953.953,0,0,1-.75-.357.979.979,0,0,1-.2-.821,10.358,10.358,0,0,1,9.855-8.2q.124,0,.249,0t.251,0a10.212,10.212,0,0,1,4.174.991.938.938,0,0,0,.8-1.693Zm-5-1.173-.229,0-.227,0a4.5,4.5,0,1,1,.456,0Z" transform="translate(0)" fill="#fff"/>
  <path id="Path_5826" data-name="Path 5826" d="M.75,0H6.67a.75.75,0,0,1,0,1.5H.75A.75.75,0,0,1,.75,0Z" transform="translate(16.58 14.595)" fill="#fff"/>
  <path id="Path_5825" data-name="Path 5825" d="M.75,0H6.67a.75.75,0,0,1,0,1.5H.75A.75.75,0,0,1,.75,0Z" transform="translate(16.58 17.6)" fill="#fff"/>
  <path id="Path_5824" data-name="Path 5824" d="M.75,0H6.67a.75.75,0,0,1,0,1.5H.75A.75.75,0,0,1,.75,0Z" transform="translate(16.58 20.6)" fill="#fff"/>
</svg>
