<svg xmlns="http://www.w3.org/2000/svg" xmlns:xlink="http://www.w3.org/1999/xlink" width="214.379" height="191" viewBox="0 0 214.379 191">
  <defs>
    <linearGradient id="linear-gradient" x1="-1.997" y1="1.588" x2="-1.996" y2="1.588" gradientUnits="objectBoundingBox">
      <stop offset="0" stop-color="#89d329"/>
      <stop offset="0.1" stop-color="#89d329"/>
      <stop offset="0.2" stop-color="#89d329"/>
      <stop offset="0.3" stop-color="#89d329"/>
      <stop offset="0.4" stop-color="#89d329"/>
      <stop offset="0.5" stop-color="#89d329"/>
      <stop offset="0.6" stop-color="#89d329"/>
      <stop offset="0.7" stop-color="#89d329"/>
      <stop offset="0.8" stop-color="#89d329"/>
      <stop offset="0.828" stop-color="#89d329"/>
      <stop offset="0.9" stop-color="#89d329"/>
      <stop offset="1" stop-color="#89d329"/>
    </linearGradient>
    <linearGradient id="linear-gradient-2" x1="0.5" y1="0" x2="0.5" y2="1" xlink:href="#linear-gradient"/>
  </defs>
  <g id="logo" transform="translate(6879.28 781)">
    <path id="path30" d="M633.641-574.28s-5.014-25.963,10.63-43.1,56.739-24.684,61.253-42.66c0,0,9.09,47.828-17.339,72.357s-60.214,23.63-62.421,35.533c0,0-2.569-10,22.22-22.59,34.544-17.539,46.6-37.511,47.48-63.283,0,0-3.14,40.151-61.823,63.739" transform="translate(-7408.92 -78.854)" fill="url(#linear-gradient)"/>
    <path id="path48" d="M450.671-590.973s5.524-20.9-6.29-35.741-44.917-23.269-47.607-38.182c0,0-10.057,38.511,10.145,59.979s47.811,22.6,48.953,32.433c0,0,2.648-8.018-16.877-19.654-27.208-16.215-35.936-33.172-35.232-54.243,0,0,.343,32.924,46.907,55.407" transform="translate(-7237.574 -75.255)" fill="#00bcff"/>
    <path id="path66" d="M597.982-747.684s-11.651-13.607-8.18-28.936,25.137-33.542,21.773-45.639c0,0,21.376,25.115,14.033,48.412s-27.537,34.087-24.848,41.835c0,0-4.864-5.029,5.515-20.745,14.463-21.9,14.868-37.7,6.754-53.167,0,0,11.6,24.692-15.046,58.241" transform="translate(-7381.871 41.26)" fill="#10384f"/>
    <text id="REWARDS" transform="translate(-6839.901 -599)" fill="#1f445a" font-size="30" font-family="OpenSans-Bold, Open Sans" font-weight="700" letter-spacing="0.17em"><tspan x="0" y="0">REWARDS</tspan></text>
    <path id="Path_5779" data-name="Path 5779" d="M12.141,27.082l.9,2.451a.235.235,0,0,0,.44,0l.9-2.451a7.227,7.227,0,0,1,4.28-4.28l2.451-.9a.235.235,0,0,0,0-.44l-2.451-.9a7.227,7.227,0,0,1-4.28-4.28l-.9-2.451a.235.235,0,0,0-.44,0l-.9,2.451a7.227,7.227,0,0,1-4.28,4.28l-2.451.9a.235.235,0,0,0,0,.44l2.451.9A7.226,7.226,0,0,1,12.141,27.082Z" transform="translate(-6884.536 -642.78)" fill="#00bcff"/>
    <path id="Path_5780" data-name="Path 5780" d="M99.977,137.113l-2.451-.9a7.226,7.226,0,0,1-4.28-4.28l-.9-2.451a.235.235,0,0,0-.44,0l-.9,2.451a7.227,7.227,0,0,1-4.28,4.28l-2.451.9a.235.235,0,0,0,0,.44l2.451.9a7.227,7.227,0,0,1,4.28,4.28l.9,2.451a.235.235,0,0,0,.44,0l.9-2.451a7.227,7.227,0,0,1,4.28-4.28l2.451-.9a.235.235,0,0,0,0-.44Z" transform="translate(-6952.499 -742.459)" fill="url(#linear-gradient-2)"/>
    <path id="Path_5781" data-name="Path 5781" d="M223.515,76.788l-1.666-.614a4.912,4.912,0,0,1-2.909-2.909l-.614-1.666a.159.159,0,0,0-.3,0l-.614,1.666a4.912,4.912,0,0,1-2.909,2.909l-1.666.614a.159.159,0,0,0,0,.3l1.666.614a4.913,4.913,0,0,1,2.909,2.909l.614,1.666a.159.159,0,0,0,.3,0l.614-1.666a4.911,4.911,0,0,1,2.909-2.909l1.666-.614a.159.159,0,0,0,0-.3Z" transform="translate(-7063.352 -692.618)" fill="url(#linear-gradient-2)"/>
    <path id="Path_5782" data-name="Path 5782" d="M214.648,245.519l-1.162-.429a3.426,3.426,0,0,1-2.029-2.029l-.429-1.162a.111.111,0,0,0-.209,0l-.429,1.162a3.425,3.425,0,0,1-2.029,2.029l-1.162.429a.111.111,0,0,0,0,.209l1.162.429a3.426,3.426,0,0,1,2.029,2.029l.429,1.162a.111.111,0,0,0,.209,0l.429-1.162a3.426,3.426,0,0,1,2.029-2.029l1.162-.429a.111.111,0,0,0,0-.209Z" transform="translate(-7058.521 -839.42)" fill="url(#linear-gradient-2)"/>
    <path id="Path_5783" data-name="Path 5783" d="M152.614,3.692l-1.162-.429a3.425,3.425,0,0,1-2.029-2.029L148.995.073a.111.111,0,0,0-.209,0l-.429,1.162a3.426,3.426,0,0,1-2.029,2.029l-1.162.429a.111.111,0,0,0,0,.209l1.162.429a3.426,3.426,0,0,1,2.029,2.029l.429,1.162a.111.111,0,0,0,.209,0l.429-1.162a3.425,3.425,0,0,1,2.029-2.029l1.162-.429a.111.111,0,0,0,0-.209Z" transform="translate(-7005.056 -631)" fill="#00bcff"/>
    <path id="Path_5784" data-name="Path 5784" d="M37.344,222.287l-1.462-.539A4.31,4.31,0,0,1,33.33,219.2l-.539-1.462a.14.14,0,0,0-.262,0L31.99,219.2a4.309,4.309,0,0,1-2.552,2.552l-1.461.539a.14.14,0,0,0,0,.262l1.461.539a4.31,4.31,0,0,1,2.552,2.552l.539,1.462a.14.14,0,0,0,.262,0l.539-1.462a4.309,4.309,0,0,1,2.552-2.552l1.462-.539a.14.14,0,0,0,0-.262Z" transform="translate(-6904.039 -818.577)" fill="#00bcff"/>
  </g>
</svg>
