<svg id="logout_icon" xmlns="http://www.w3.org/2000/svg" width="30" height="30" viewBox="0 0 30 30">
  <path id="Path_880" data-name="Path 880" d="M14.95,28.35H3.738A1.248,1.248,0,0,1,2.492,27.1V4.6A1.248,1.248,0,0,1,3.738,3.35H14.95a1.25,1.25,0,0,0,0-2.5H3.738A3.748,3.748,0,0,0,0,4.6V27.1a3.748,3.748,0,0,0,3.738,3.75H14.95a1.25,1.25,0,0,0,0-2.5Z" transform="translate(0 -0.85)" fill="#fff"/>
  <path id="Path_881" data-name="Path 881" d="M189.762,115.025l-7.575-7.5a1.248,1.248,0,0,0-1.749,1.78l5.413,5.36H171.346a1.25,1.25,0,0,0,0,2.5h14.505l-5.413,5.36a1.25,1.25,0,0,0,.875,2.14,1.237,1.237,0,0,0,.875-.36l7.575-7.5a1.252,1.252,0,0,0,0-1.78Z" transform="translate(-160.133 -100.915)" fill="#fff"/>
</svg>
