<svg id="logs" xmlns="http://www.w3.org/2000/svg" width="20" height="20" viewBox="0 0 20 20">
  <path id="Path_5805" data-name="Path 5805" d="M22.263,26.373h6.285a.186.186,0,1,0,0-.373H22.263a.186.186,0,1,0,0,.373Z" transform="translate(-19.724 -22.708)"/>
  <path id="Path_5806" data-name="Path 5806" d="M22.263,36.373h6.285a.186.186,0,1,0,0-.373H22.263a.186.186,0,1,0,0,.373Z" transform="translate(-19.724 -30.845)"/>
  <path id="Path_5807" data-name="Path 5807" d="M22.263,46.373H32.929a.186.186,0,1,0,0-.373H22.263a.186.186,0,1,0,0,.373Z" transform="translate(-19.724 -38.982)"/>
  <path id="Path_5808" data-name="Path 5808" d="M22.263,56.373H32.929a.186.186,0,1,0,0-.373H22.263a.186.186,0,1,0,0,.373Z" transform="translate(-19.724 -47.118)"/>
  <path id="Path_5809" data-name="Path 5809" d="M22.263,66.373H32.929a.186.186,0,1,0,0-.373H22.263a.186.186,0,1,0,0,.373Z" transform="translate(-19.724 -55.255)"/>
  <path id="Path_5810" data-name="Path 5810" d="M22.263,76.373h8.38a.186.186,0,1,0,0-.373h-8.38a.186.186,0,1,0,0,.373Z" transform="translate(-19.724 -63.392)"/>
  <path id="Path_5811" data-name="Path 5811" d="M22.263,86.373H29.12a.186.186,0,1,0,0-.373H22.263a.186.186,0,1,0,0,.373Z" transform="translate(-19.724 -71.529)"/>
  <path id="Path_5812" data-name="Path 5812" d="M22.263,96.373H29.12a.186.186,0,1,0,0-.373H22.263a.186.186,0,1,0,0,.373Z" transform="translate(-19.724 -79.665)"/>
  <path id="Path_5813" data-name="Path 5813" d="M9.93,81.765a.188.188,0,0,0,.19-.186V79.436a.191.191,0,0,0-.381,0v2.143A.188.188,0,0,0,9.93,81.765Z" transform="translate(-9.74 -66.036)"/>
  <path id="Path_5814" data-name="Path 5814" d="M25.485,19.828V13.643a.185.185,0,0,0-.064-.139l-5.23-5.116a.193.193,0,0,0-.135-.055H10.311a.565.565,0,0,0-.571.559v12a.191.191,0,0,0,.381,0v-12a.188.188,0,0,1,.19-.186h9.555v4.565a.565.565,0,0,0,.571.559H25.1v6a4.319,4.319,0,0,0-4.078,3.454,4.232,4.232,0,0,0,2.5,4.678H10.311a.188.188,0,0,1-.19-.186V24.644a.191.191,0,0,0-.381,0v3.129a.565.565,0,0,0,.571.559H25.3a4.255,4.255,0,1,0,.186-8.505Zm-5.238-6.557v-4.3l4.587,4.488h-4.4a.188.188,0,0,1-.19-.186ZM25.3,27.959a3.883,3.883,0,1,1,3.968-3.882A3.925,3.925,0,0,1,25.3,27.959Z" transform="translate(-9.74 -8.333)"/>
  <path id="Path_5815" data-name="Path 5815" d="M77.665,75.833A3.168,3.168,0,1,0,80.9,79,3.2,3.2,0,0,0,77.665,75.833Zm0,5.962A2.8,2.8,0,1,1,80.522,79,2.826,2.826,0,0,1,77.665,81.8Z" transform="translate(-62.106 -63.256)"/>
  <path id="Path_5816" data-name="Path 5816" d="M91.108,82.781H89.834a.471.471,0,0,0-.25-.242V80.894a.191.191,0,0,0-.381,0v1.649a.464.464,0,0,0-.277.492.471.471,0,0,0,.408.4.478.478,0,0,0,.5-.277h1.273a.186.186,0,1,0,0-.373Z" transform="translate(-73.841 -67.223)"/>
</svg>
