<svg xmlns="http://www.w3.org/2000/svg" width="21" height="17" viewBox="0 0 21 17">
  <g id="menu_icon" transform="translate(6819 1075)">
    <path id="Path_1" data-name="Path 1" d="M1.5,0h18a1.5,1.5,0,0,1,0,3H1.5a1.5,1.5,0,0,1,0-3Z" transform="translate(-6819 -1075)" fill="#10384f"/>
    <path id="Path_2" data-name="Path 2" d="M1.5,0h18a1.5,1.5,0,0,1,0,3H1.5a1.5,1.5,0,0,1,0-3Z" transform="translate(-6819 -1068)" fill="#10384f"/>
    <path id="Path_3" data-name="Path 3" d="M1.5,0h18a1.5,1.5,0,0,1,0,3H1.5a1.5,1.5,0,0,1,0-3Z" transform="translate(-6819 -1061)" fill="#10384f"/>
  </g>
</svg>
