<svg id="not_activated" xmlns="http://www.w3.org/2000/svg" width="20" height="20" viewBox="0 0 20 20">
  <path id="Path_9167" data-name="Path 9167" d="M17.075,2.995a10,10,0,1,0,0,14.149A10.013,10.013,0,0,0,17.075,2.995Zm-1.1,13.053a8.454,8.454,0,1,1,0-11.957A8.461,8.461,0,0,1,15.98,16.048Z" transform="translate(0 -0.07)" fill="#ff9d00"/>
  <path id="Path_9213" data-name="Path 9213" d="M235.594,125.909a.832.832,0,0,0-.833.833v5a.833.833,0,1,0,1.666,0v-5A.832.832,0,0,0,235.594,125.909Z" transform="translate(-225.593 -120.95)" fill="#ff9d00"/>
  <path id="Path_9214" data-name="Path 9214" d="M236.361,341.8a.777.777,0,0,0-.175-.275.794.794,0,0,0-.133-.1.9.9,0,0,0-.3-.125.832.832,0,0,0-.749.225.778.778,0,0,0-.175.275.786.786,0,0,0,0,.633.751.751,0,0,0,.45.45.783.783,0,0,0,.632,0,.974.974,0,0,0,.275-.175.962.962,0,0,0,.175-.275.786.786,0,0,0,0-.633Z" transform="translate(-225.594 -327.91)" fill="#ff9d00"/>
</svg>
