<svg xmlns="http://www.w3.org/2000/svg" width="40" height="33.043" viewBox="0 0 40 33.043">
  <g id="order_history" transform="translate(-4 -3)">
    <path id="Path_10076" data-name="Path 10076" d="M29.957,3H7.348A4.353,4.353,0,0,0,3,7.348V29.957A4.352,4.352,0,0,0,7.348,34.3H29.957c1.185,0-3-.851-4.867-4.9-.567-1.2.346-4.5.586-6.746.111-1.023,1.973-3.546,4.792-4.49,1.4-.453,3.836.807,3.836-1.077V7.348A4.353,4.353,0,0,0,29.957,3ZM22.13,4.739v8.7H15.174v-8.7Zm5.118,27.826H7.348a2.612,2.612,0,0,1-2.609-2.609V7.348A2.612,2.612,0,0,1,7.348,4.739h6.087V14.3a.87.87,0,0,0,.87.87H23a.87.87,0,0,0,.87-.87V4.739h6.087a2.612,2.612,0,0,1,2.609,2.609v9.746L26.76,20.749l-2.44,5.5Z" transform="translate(1 0)" fill="#206bdd"/>
    <path id="_1" data-name="1" d="M20.848,23.42a1.087,1.087,0,0,1-.667-.229L16.92,20.655a1.087,1.087,0,0,1-.42-.858v-4.71a1.087,1.087,0,0,1,2.174,0v4.178l2.841,2.21a1.087,1.087,0,0,1-.667,1.945" transform="translate(16.087 7.768)" fill="#206bdd"/>
    <path id="Path_9169" data-name="Path 9169" d="M9.565,0A9.565,9.565,0,1,0,19.13,9.565,9.576,9.576,0,0,0,9.565,0Zm0,17.649a8.083,8.083,0,1,1,8.083-8.083A8.093,8.093,0,0,1,9.565,17.649Z" transform="translate(24.87 16.913)" fill="#206bdd"/>
  </g>
</svg>
