<svg xmlns="http://www.w3.org/2000/svg" width="24" height="32.727" viewBox="0 0 24 32.727">
  <g id="points_log_icon" transform="translate(-40 -8)">
    <path id="Path_2797" data-name="Path 2797" d="M59.636,112.727a1.092,1.092,0,0,0,1.091-1.091v-6.545A1.092,1.092,0,0,0,59.636,104H41.091A1.092,1.092,0,0,0,40,105.091v6.545a1.092,1.092,0,0,0,1.091,1.091Zm-6.857-5.6a1.894,1.894,0,0,1,.823-.8,2.222,2.222,0,0,1,1.028-.214,2.052,2.052,0,0,1,1.25.335,1.515,1.515,0,0,1,.579.927l-.861.161a.91.91,0,0,0-.341-.5,1.032,1.032,0,0,0-.626-.183,1.175,1.175,0,0,0-.9.36,1.518,1.518,0,0,0-.335,1.069,1.682,1.682,0,0,0,.34,1.147,1.135,1.135,0,0,0,.891.382,1.493,1.493,0,0,0,.546-.107,1.871,1.871,0,0,0,.47-.259V108.9h-.994v-.724h1.869v1.711a2.353,2.353,0,0,1-.79.464,2.874,2.874,0,0,1-1.047.2,2.351,2.351,0,0,1-1.175-.283,1.8,1.8,0,0,1-.753-.809,2.613,2.613,0,0,1-.252-1.144A2.472,2.472,0,0,1,52.779,107.13Zm-4.808.132a2.021,2.021,0,0,1,.4-.589,1.673,1.673,0,0,1,.555-.387,2.359,2.359,0,0,1,.926-.17,2.017,2.017,0,0,1,1.519.589,2.632,2.632,0,0,1,0,3.265,2,2,0,0,1-1.512.587,2.022,2.022,0,0,1-1.523-.584,2.218,2.218,0,0,1-.565-1.61,2.731,2.731,0,0,1,.2-1.1Zm-3.692-1.037h.867v3.536H47.3v.724H44.279Z" transform="translate(0 -83.328)" fill="#fff"/>
    <path id="Path_2798" data-name="Path 2798" d="M104.761,127.917a1.088,1.088,0,0,0,.851-.373,1.641,1.641,0,0,0,.332-1.121,1.615,1.615,0,0,0-.324-1.1,1.2,1.2,0,0,0-1.724,0,2.01,2.01,0,0,0,.009,2.215A1.1,1.1,0,0,0,104.761,127.917Z" transform="translate(-54.9 -101.428)" fill="#fff"/>
    <path id="Path_2799" data-name="Path 2799" d="M68.727,8H50.182A2.184,2.184,0,0,0,48,10.182V20h1.091V10.182a1.092,1.092,0,0,1,1.091-1.091H68.727a1.092,1.092,0,0,1,1.091,1.091V32.958a1.112,1.112,0,0,1-.009.132h-4.9a1.638,1.638,0,0,0-1.636,1.636v4.9a1.1,1.1,0,0,1-.132.009H50.182a1.092,1.092,0,0,1-1.091-1.091V30.909H48v7.636a2.184,2.184,0,0,0,2.182,2.182H63.14a2.168,2.168,0,0,0,1.543-.639L70.27,34.5a2.168,2.168,0,0,0,.639-1.543V10.182A2.184,2.184,0,0,0,68.727,8Z" transform="translate(-6.909)" fill="#fff"/>
  </g>
</svg>
