<svg xmlns="http://www.w3.org/2000/svg" width="85" height="85.12" viewBox="0 0 85 85.12">
  <g id="retailer_denied" transform="translate(996 4796)">
    <g id="retailer" transform="translate(-996.734 -4796.72)" opacity="0.35">
      <path id="Fill-59" d="M83.21,41.935A41.238,41.238,0,1,1,41.972.72,41.226,41.226,0,0,1,83.21,41.935" fill="#d9ffff" fill-rule="evenodd"/>
      <path id="Fill-60" d="M846.719,829.42l6.852,14.9a8.669,8.669,0,0,1-9.008,9.123L824.33,838.094l22.389-8.674" transform="translate(-782.034 -786.881)" fill="#ffa04f" fill-rule="evenodd"/>
      <path id="Fill-61" d="M1233.855,1096.26l14.586,8.206c.44,4.324-3.326,12.149-7.905,14.045l-15.266-11.69,8.585-10.56" transform="translate(-1162.742 -1040.255)" fill="#ffa04f" fill-rule="evenodd"/>
      <path id="Fill-62" d="M727.5,415.52s-23.343-27.435-26.741-23.866c-3.892,4.088,21.685,28.92,21.685,28.92l5.056-5.053" transform="translate(-664.315 -370.902)" fill="#ffa04f" fill-rule="evenodd"/>
      <path id="Fill-63" d="M699.049,306.285l-20.186-4.627a2.407,2.407,0,0,1-1.744-2.909l9.815-43.683a2.339,2.339,0,0,1,2.757-1.807l19.834,4.357a2.355,2.355,0,0,1,1.764,2.811l-9.426,43.982a2.369,2.369,0,0,1-2.814,1.876" transform="translate(-642.193 -239.745)" fill="#8fc9ed" fill-rule="evenodd"/>
      <path id="Fill-64" d="M706.061,312.173a1.988,1.988,0,0,1-.259-.042l-20.175-4.647a2.1,2.1,0,0,1-1.5-2.54l9.8-43.637a2.04,2.04,0,0,1,2.387-1.588l19.837,4.336.093.023a1.975,1.975,0,0,1,1.18.891,2.074,2.074,0,0,1,.248,1.514l-9.44,44.026a2.056,2.056,0,0,1-2.17,1.662" transform="translate(-648.855 -245.888)" fill="#33201b" fill-rule="evenodd"/>
      <path id="Fill-65" d="M730.095,302.115l-9.419,43.87-22.736-5.2,9.79-43.653,22.365,4.985" transform="translate(-662.023 -281.452)" fill="#fff" fill-rule="evenodd"/>
      <path id="Fill-66" d="M1127.615,402.82l-3.544-.79-.641,4.165,3.913.868.272-4.243" transform="translate(-1066.041 -381.059)" fill="#ffded9" fill-rule="evenodd"/>
      <path id="Fill-67" d="M1136.429,352.52l-.309,2.5,3.544.79-.055-2.579-3.18-.709" transform="translate(-1078.09 -334.047)" fill="#ffded9" fill-rule="evenodd"/>
      <path id="Fill-68" d="M1050.472,387.17l-3.542-.79-1.01,4.088,3.911.867.64-4.165" transform="translate(-992.443 -366.198)" fill="#ff3305" fill-rule="evenodd"/>
      <path id="Fill-69" d="M1066.612,338.49l-.672,2.417,3.542.79.309-2.5-3.179-.708" transform="translate(-1011.452 -320.725)" fill="#ff3305" fill-rule="evenodd"/>
      <path id="Fill-70" d="M1205.26,366.57l.055,2.579,3.545.79-.42-2.66-3.18-.709" transform="translate(-1143.742 -347.388)" fill="#ff3305" fill-rule="evenodd"/>
      <path id="Fill-71" d="M1204.787,418.47l-3.545-.79-.271,4.243,3.914.868-.1-4.322" transform="translate(-1139.668 -395.919)" fill="#ff3305" fill-rule="evenodd"/>
      <path id="Fill-72" d="M1268.29,380.62l.419,2.66,3.72.829-.757-2.736-3.382-.753" transform="translate(-1203.591 -360.729)" fill="#ffded9" fill-rule="evenodd"/>
      <path id="Fill-73" d="M1280.32,434.159l-3.72-.829.1,4.322,4.039.9-.416-4.389" transform="translate(-1211.482 -410.779)" fill="#ffded9" fill-rule="evenodd"/>
      <path id="Fill-74" d="M856.066,296.32l-1.806,2.164,3.6.8,1.4-2.256-3.194-.712" transform="translate(-810.454 -280.683)" fill="#ffded9" fill-rule="evenodd"/>
      <path id="Fill-75" d="M813,339.21l-2.193,3.836,4.045.9,1.751-3.931-3.6-.8" transform="translate(-769.197 -321.409)" fill="#ffded9" fill-rule="evenodd"/>
      <path id="Fill-76" d="M969.811,370.75l-1.381,4.009,3.911.867,1.01-4.088-3.54-.789" transform="translate(-918.863 -351.357)" fill="#ffded9" fill-rule="evenodd"/>
      <path id="Fill-77" d="M996.824,324.45l-1.034,2.336,3.54.789.672-2.417-3.178-.709" transform="translate(-944.842 -307.394)" fill="#ffded9" fill-rule="evenodd"/>
      <path id="Fill-78" d="M892.721,355.12l-1.751,3.931,3.909.867,1.381-4.009-3.538-.789" transform="translate(-845.311 -336.516)" fill="#ff3305" fill-rule="evenodd"/>
      <path id="Fill-79" d="M927.066,310.42l-1.4,2.256,3.538.789,1.034-2.336-3.177-.708" transform="translate(-878.261 -294.072)" fill="#ff3305" fill-rule="evenodd"/>
      <path id="Fill-80" d="M811.4,416.139l-4.045-.9v-.012l-.136.61a2.063,2.063,0,0,0,1.6,2.438,1.993,1.993,0,0,0,2.434-1.49l.144-.649" transform="translate(-765.744 -393.592)" fill="#ffc9c0" fill-rule="evenodd"/>
      <path id="Fill-81" d="M891.474,433.5l-3.908-.866v-.012l-.136.61a2.026,2.026,0,0,0,1.532,2.422,1.956,1.956,0,0,0,2.366-1.5l.145-.649" transform="translate(-841.905 -410.105)" fill="#ed2f05" fill-rule="evenodd"/>
      <path id="Fill-82" d="M968.924,450.759l-3.908-.866v-.012l-.136.61a2.026,2.026,0,0,0,1.531,2.422,1.956,1.956,0,0,0,2.366-1.5l.145-.649" transform="translate(-915.446 -426.494)" fill="#ffc9c0" fill-rule="evenodd"/>
      <path id="Fill-83" d="M1046.414,468.029l-3.908-.866v-.012l-.136.61a2.026,2.026,0,0,0,1.532,2.422,1.956,1.956,0,0,0,2.366-1.5l.145-.65" transform="translate(-989.026 -442.892)" fill="#ed2f05" fill-rule="evenodd"/>
      <path id="Fill-84" d="M1123.9,485.3l-3.908-.866v-.012l-.136.61a2.026,2.026,0,0,0,1.532,2.422,1.956,1.956,0,0,0,2.366-1.5l.145-.65" transform="translate(-1062.606 -459.291)" fill="#ffc9c0" fill-rule="evenodd"/>
      <path id="Fill-85" d="M1201.354,502.559l-3.908-.866v-.012l-.136.61a2.027,2.027,0,0,0,1.532,2.423,1.957,1.957,0,0,0,2.366-1.5l.145-.65" transform="translate(-1136.147 -475.68)" fill="#ed2f05" fill-rule="evenodd"/>
      <path id="Fill-86" d="M1279.13,519.478l-4.041-.9v-.012l-.136.61a2.062,2.062,0,0,0,1.6,2.437,1.992,1.992,0,0,0,2.432-1.49l.145-.649" transform="translate(-1209.873 -491.718)" fill="#ffc9c0" fill-rule="evenodd"/>
      <path id="Fill-87" d="M814.8,416.13l0-.008-4.006-.893v.012l4.005.889" transform="translate(-769.178 -393.592)" fill="#fbd2cb" fill-rule="evenodd"/>
      <path id="Fill-88" d="M890.16,432.928l.039.009v-.008l-.038-.009,0,.008" transform="translate(-844.542 -410.39)" fill="#f13005" fill-rule="evenodd"/>
      <path id="Fill-89" d="M890.941,433.09v.008l0-.008h0" transform="translate(-845.283 -410.551)" fill="#f13005" fill-rule="evenodd"/>
      <path id="Fill-90" d="M840.688,821.267a.787.787,0,0,0-.164,1.557l13.959,3a.787.787,0,1,0,.33-1.539l-13.959-3A.782.782,0,0,0,840.688,821.267Zm13.961,4.7a.932.932,0,0,1-.193-.021l-13.959-3a.916.916,0,1,1,.385-1.79l13.959,3a.916.916,0,0,1-.192,1.811Z" transform="translate(-796.699 -779.017)" fill="#04f2f5" fill-rule="evenodd"/>
      <path id="Fill-91" d="M830.508,868.642a.787.787,0,0,0-.165,1.557l13.959,3a.788.788,0,0,0,.935-.6.789.789,0,0,0-.6-.935l-13.959-3A.778.778,0,0,0,830.508,868.642Zm13.961,4.7a.947.947,0,0,1-.194-.021l-13.959-3a.916.916,0,1,1,.385-1.79l13.959,3a.916.916,0,0,1-.191,1.811Z" transform="translate(-787.032 -824.002)" fill="#04f2f5" fill-rule="evenodd"/>
      <path id="Fill-92" d="M820.334,916.012a.787.787,0,0,0-.661,1.215.78.78,0,0,0,.5.342l13.959,3a.787.787,0,1,0,.331-1.539l-13.959-3A.775.775,0,0,0,820.334,916.012Zm13.961,4.7a.938.938,0,0,1-.194-.021l-13.959-3a.915.915,0,0,1-.7-1.087.916.916,0,0,1,1.087-.7l13.959,3a.916.916,0,0,1-.191,1.811Z" transform="translate(-777.37 -868.982)" fill="#04f2f5" fill-rule="evenodd"/>
      <path id="Fill-93" d="M810.154,963.382a.787.787,0,0,0-.165,1.557l6.018,1.293a.787.787,0,0,0,.331-1.54l-6.019-1.293A.8.8,0,0,0,810.154,963.382Zm6.021,3a.915.915,0,0,1-.194-.021l-6.019-1.293a.915.915,0,0,1,.385-1.79l6.019,1.293a.916.916,0,0,1-.19,1.811Z" transform="translate(-767.704 -913.961)" fill="#04f2f5" fill-rule="evenodd"/>
      <path id="Fill-94" d="M975.738,998.962a.787.787,0,0,0-.165,1.557l5.474,1.176a.788.788,0,0,0,.935-.6.788.788,0,0,0-.6-.935L975.9,998.98A.778.778,0,0,0,975.738,998.962Zm5.476,2.879a.951.951,0,0,1-.194-.021l-5.474-1.176a.916.916,0,0,1,.385-1.791l5.474,1.176a.916.916,0,0,1-.191,1.811Z" transform="translate(-924.933 -947.746)" fill="#04f2f5" fill-rule="evenodd"/>
      <path id="Fill-95" d="M853.511,833.985a.295.295,0,1,1-.227-.35.295.295,0,0,1,.227.35" transform="translate(-809.189 -790.877)" fill="#04f2f5" fill-rule="evenodd"/>
      <path id="Fill-96" d="M877.3,839.1a.295.295,0,1,1-.227-.35.3.3,0,0,1,.227.35" transform="translate(-831.779 -795.731)" fill="#04f2f5" fill-rule="evenodd"/>
      <path id="Fill-97" d="M901.091,844.214a.295.295,0,1,1-.227-.35.3.3,0,0,1,.227.35" transform="translate(-854.368 -800.59)" fill="#04f2f5" fill-rule="evenodd"/>
      <path id="Fill-98" d="M924.881,849.325a.295.295,0,1,1-.227-.35.3.3,0,0,1,.227.35" transform="translate(-876.958 -805.443)" fill="#04f2f5" fill-rule="evenodd"/>
      <path id="Fill-99" d="M948.671,854.435a.295.295,0,1,1-.227-.35.295.295,0,0,1,.227.35" transform="translate(-899.547 -810.295)" fill="#04f2f5" fill-rule="evenodd"/>
      <path id="Fill-100" d="M974.571,860a.295.295,0,1,1-.226-.35.295.295,0,0,1,.226.35" transform="translate(-924.14 -815.583)" fill="#04f2f5" fill-rule="evenodd"/>
      <path id="Fill-101" d="M998.363,865.115a.295.295,0,1,1-.226-.35.294.294,0,0,1,.226.35" transform="translate(-946.733 -820.436)" fill="#04f2f5" fill-rule="evenodd"/>
      <path id="Fill-102" d="M1022.154,870.227a.295.295,0,1,1-.226-.35.294.294,0,0,1,.226.35" transform="translate(-969.322 -825.291)" fill="#04f2f5" fill-rule="evenodd"/>
      <path id="Fill-103" d="M1045.944,875.344a.295.295,0,1,1-.226-.35.294.294,0,0,1,.226.35" transform="translate(-991.911 -830.149)" fill="#04f2f5" fill-rule="evenodd"/>
      <path id="Fill-104" d="M1069.734,880.454a.295.295,0,1,1-.226-.35.295.295,0,0,1,.226.35" transform="translate(-1014.501 -835.001)" fill="#04f2f5" fill-rule="evenodd"/>
      <path id="Fill-105" d="M843.331,881.355a.295.295,0,1,1-.227-.35.295.295,0,0,1,.227.35" transform="translate(-799.523 -835.856)" fill="#04f2f5" fill-rule="evenodd"/>
      <path id="Fill-106" d="M867.121,886.468a.295.295,0,1,1-.227-.35.3.3,0,0,1,.227.35" transform="translate(-822.112 -840.711)" fill="#04f2f5" fill-rule="evenodd"/>
      <path id="Fill-107" d="M890.911,891.584a.295.295,0,1,1-.226-.35.294.294,0,0,1,.226.35" transform="translate(-844.702 -845.569)" fill="#04f2f5" fill-rule="evenodd"/>
      <path id="Fill-108" d="M914.7,896.694a.295.295,0,1,1-.227-.35.3.3,0,0,1,.227.35" transform="translate(-867.291 -850.422)" fill="#04f2f5" fill-rule="evenodd"/>
      <path id="Fill-109" d="M938.491,901.8a.295.295,0,1,1-.227-.35.295.295,0,0,1,.227.35" transform="translate(-889.881 -855.274)" fill="#04f2f5" fill-rule="evenodd"/>
      <path id="Fill-110" d="M964.394,907.374a.295.295,0,1,1-.226-.35.294.294,0,0,1,.226.35" transform="translate(-914.477 -860.563)" fill="#04f2f5" fill-rule="evenodd"/>
      <path id="Fill-111" d="M988.184,912.485a.295.295,0,1,1-.226-.35.294.294,0,0,1,.226.35" transform="translate(-937.066 -865.415)" fill="#04f2f5" fill-rule="evenodd"/>
      <path id="Fill-112" d="M1011.974,917.595a.295.295,0,1,1-.226-.35.294.294,0,0,1,.226.35" transform="translate(-959.656 -870.267)" fill="#04f2f5" fill-rule="evenodd"/>
      <path id="Fill-113" d="M1035.764,922.707a.295.295,0,1,1-.226-.35.294.294,0,0,1,.226.35" transform="translate(-982.245 -875.122)" fill="#04f2f5" fill-rule="evenodd"/>
      <path id="Fill-114" d="M886.6,597.735l-1.4,6.516a1.182,1.182,0,0,1-1.4.907l-12.206-2.623a1.182,1.182,0,0,1-.907-1.4l1.4-6.516a1.182,1.182,0,0,1,1.4-.907l12.206,2.623a1.182,1.182,0,0,1,.908,1.4" transform="translate(-826.018 -563.039)" fill="#039ee3" fill-rule="evenodd"/>
      <path id="Fill-115" d="M903.765,633.51l-.307,1.426-14.518-3.12.306-1.426,14.518,3.12" transform="translate(-843.384 -597.895)" fill="#fff" fill-rule="evenodd"/>
      <path id="Fill-116" d="M890.848,732.666l-3.768-.81.13-.606,3.768.809-.13.607" transform="translate(-841.618 -693.665)" fill="#fff" fill-rule="evenodd"/>
      <path id="Fill-117" d="M980.418,751.915l-3.768-.809.13-.606,3.768.809-.13.606" transform="translate(-926.668 -711.944)" fill="#fff" fill-rule="evenodd"/>
      <path id="Fill-118" d="M1067.8,770.686l-3.768-.809.13-.606,3.768.81-.13.606" transform="translate(-1009.639 -729.767)" fill="#fff" fill-rule="evenodd"/>
      <path id="Fill-119" d="M898.409,678.715l-1.849-.4.35-1.627,1.849.4-.35,1.627" transform="translate(-850.619 -641.858)" fill="#f7e105" fill-rule="evenodd"/>
      <path id="Fill-120" d="M919.89,1079.519c0-.005,0-.008,0-.008l0,.008" transform="translate(-872.772 -1024.351)" fill="#d9ffff" fill-rule="evenodd"/>
      <path id="Fill-121" d="M919.89,1079.519c0-.005,0-.008,0-.008l0,.008" transform="translate(-872.772 -1024.351)" fill="#d9ffff" fill-rule="evenodd"/>
      <path id="Fill-122" d="M986.01,1097.159l0-.009s0,0,0,.009" transform="translate(-935.556 -1041.101)" fill="#d9ffff" fill-rule="evenodd"/>
      <path id="Fill-123" d="M986.01,1097.159l0-.009s0,0,0,.009" transform="translate(-935.556 -1041.101)" fill="#d9ffff" fill-rule="evenodd"/>
      <path id="Fill-124" d="M914.382,1070.92a3.314,3.314,0,0,1-1.877.442c-.011.044-.068.288-.332,1.411a2.964,2.964,0,0,0,1.122,2.769,2.739,2.739,0,0,0,2.214-1.879l.332-1.411a3.56,3.56,0,0,1-1.46-1.332" transform="translate(-865.388 -1016.194)" fill="#03d67c" fill-rule="evenodd"/>
      <path id="Fill-125" d="M916.884,1080.173a3.6,3.6,0,0,1-.653-.774,2.25,2.25,0,0,1-.333-1.744l.3-1.268a3.545,3.545,0,0,0,1.666-.377,3.808,3.808,0,0,0,1.3,1.169l-.3,1.268a2.114,2.114,0,0,1-1.064,1.371,3.281,3.281,0,0,1-.919.355" transform="translate(-868.928 -1021.027)" fill="#1bf79a" fill-rule="evenodd"/>
      <path id="Fill-126" d="M927.255,1107.614a2.617,2.617,0,0,0-1.642.574.857.857,0,0,0-.307-.588l-.466.278a1.05,1.05,0,0,1,.365.85l.365.157a3.176,3.176,0,0,1,1.729-1.1.654.654,0,0,0-.045-.175" transform="translate(-877.473 -1051.023)" fill="#fff" fill-rule="evenodd"/>
      <path id="Fill-127" d="M1179.046,634.5c-2.7-8.295-8.393-24.161-8.393-24.161s-1.851-.823-2.765,2.688,1.673,10.7,1.673,10.7-5.431,16.761,3.391,18.74c6.129,1.375,7.868-4.469,6.094-7.969" transform="translate(-1108.07 -578.781)" fill="#ffa04f" fill-rule="evenodd"/>
      <path id="Fill-128" d="M718.079,600.13s-6.521,1.056-3.8,6.715,5.745,1.28,4.4-3.109a17.217,17.217,0,0,1-.593-3.606" transform="translate(-676.904 -569.162)" fill="#ffa04f" fill-rule="evenodd"/>
      <path id="Fill-129" d="M694.113,707.66s-6.521,1.056-3.8,6.715,5.745,1.28,4.4-3.109a17.258,17.258,0,0,1-.593-3.606" transform="translate(-654.148 -671.265)" fill="#ffa04f" fill-rule="evenodd"/>
      <path id="Fill-130" d="M667.843,896.21s-5.087.824-2.967,5.239,4.482,1,3.43-2.425a13.482,13.482,0,0,1-.463-2.813" transform="translate(-630.136 -850.301)" fill="#ffa04f" fill-rule="evenodd"/>
      <path id="Fill-131" d="M95.218,1199.209l-3.559,11.367c-.22,3.895,10.963,6.156,12.786,3.1,1.2-7.59,3.806-18.48,3.257-22.311-2.29-2.918-9.6-1.59-12.485,7.842" transform="translate(-86.333 -1129.258)" fill="#ffa04f" fill-rule="evenodd"/>
      <path id="Fill-132" d="M21.967,871c1.042-2.192-.411-4.366.02-7.487.866-2.03,2.861-4.973,1.814-7.085-7.127-15.19-14.877-13.57-21.437,1.35-.291,2.7,4.407,10.909,7.165,15.455,1.831,3.532,11.012,2.445,12.438-2.234" transform="translate(-1.536 -802.42)" fill="#ffa04f" fill-rule="evenodd"/>
      <path id="Fill-133" d="M336.4,973.939l-.057.068c-.012.2-.023.4-.03.588-3.457-2.488-3.376-8.288-2.19-11.825.2,3.533,1.959,6.859,4.144,7.483a6.839,6.839,0,0,1-.649,1.864,10.025,10.025,0,0,1-1.218,1.822" transform="translate(-315.86 -913.502)" fill="#cf7d36" fill-rule="evenodd"/>
      <path id="Fill-134" d="M84.918,928.083c-3.038-.963-7.369,1.636-7.369,1.636s5.6,2.958,6.254,5-.372,4.405.5,7.888,4.656-3.716,4.85-7.7c.191-3.915-1.193-5.864-4.231-6.826" transform="translate(-72.939 -880.362)" fill="#cf7d36" fill-rule="evenodd"/>
      <path id="Fill-135" d="M91.792,435.933l-10.4,25.037a1.049,1.049,0,0,1-1.371.566l-14.634-6.081a1.048,1.048,0,0,1-.566-1.371l10.4-25.037a1.048,1.048,0,0,1,1.371-.566l14.634,6.08a1.049,1.049,0,0,1,.566,1.371" transform="translate(-60.774 -406.099)" fill="#025bb3" fill-rule="evenodd"/>
      <path id="Fill-136" d="M134.443,448.978l-11.208,26.974-2.859-1.188,11.208-26.974,2.859,1.188" transform="translate(-113.604 -424.509)" fill="#039ee3" fill-rule="evenodd"/>
      <path id="Fill-137" d="M342.9,938.7l-1.648,3.966a.508.508,0,0,0,.938.39l1.648-3.966a.508.508,0,0,0-.938-.39" transform="translate(-323.301 -890.361)" fill="#d1f5ff" fill-rule="evenodd"/>
      <path id="Fill-138" d="M393.119,817.841l-1.648,3.966a.5.5,0,0,0,.279.651h0a.5.5,0,0,0,.659-.261l1.648-3.966a.508.508,0,0,0-.938-.39" transform="translate(-370.984 -775.6)" fill="#d1f5ff" fill-rule="evenodd"/>
      <path id="Fill-139" d="M443.335,696.981l-1.648,3.966a.508.508,0,0,0,.938.39l1.648-3.966a.508.508,0,0,0-.938-.39" transform="translate(-418.666 -660.839)" fill="#d1f5ff" fill-rule="evenodd"/>
      <path id="Fill-140" d="M493.553,576.121l-1.648,3.966a.508.508,0,0,0,.938.39l1.648-3.966a.508.508,0,0,0-.938-.39" transform="translate(-466.35 -546.078)" fill="#d1f5ff" fill-rule="evenodd"/>
      <path id="Fill-141" d="M88.009,913.27l-.419,1.008,1.217.505.419-1.007-1.217-.506" transform="translate(-82.473 -866.5)" fill="#d1f5ff" fill-rule="evenodd"/>
      <path id="Fill-142" d="M100.676,839.954l1.217.506,1.364-3.284-1.217-.506-1.364,3.284" transform="translate(-94.898 -793.765)" fill="#d1f5ff" fill-rule="evenodd"/>
      <path id="Fill-143" d="M381.292,536.657l1.118-2.69a.863.863,0,0,1,1.129-.466l2.423,1.007a.864.864,0,0,1,.466,1.129l-1.118,2.69a.863.863,0,0,1-1.129.466l-2.423-1.007a.864.864,0,0,1-.466-1.129" transform="translate(-361.291 -505.832)" fill="#dbc704" fill-rule="evenodd"/>
      <path id="Fill-144" d="M210.661,870.93a13.935,13.935,0,0,1-1.325-5.778c0-.041,0-.082,0-.122-.087-4.328-1.571-7.8-3.316-7.773-2.2.036-3.088,3.572-3,7.9.007.373.025.74.053,1.1a13.706,13.706,0,0,1-.757,5.563,16.282,16.282,0,0,0-.839,5.667c.109,5.446,2.562,9.814,5.479,9.755s5.193-4.521,5.083-9.967a15.686,15.686,0,0,0-1.377-6.342" transform="translate(-190.607 -813.313)" fill="#ffa04f" fill-rule="evenodd"/>
    </g>
    <path id="Path_9237" data-name="Path 9237" d="M195.5,188.5l-9.105-9.095,9.105-9.095a3.217,3.217,0,0,0-4.548-4.552l-9.112,9.1-9.112-9.1a3.217,3.217,0,0,0-4.548,4.552l9.105,9.095L168.18,188.5a3.217,3.217,0,0,0,4.548,4.552l9.112-9.1,9.112,9.1A3.217,3.217,0,1,0,195.5,188.5Z" transform="translate(-1136.432 -4934.449)" fill="#ff4848"/>
  </g>
</svg>
