<svg id="scan_logs_icon" xmlns="http://www.w3.org/2000/svg" width="30" height="22.939" viewBox="0 0 30 22.939">
  <path id="Path_2800" data-name="Path 2800" d="M120.5,361.5h1.758v1.758H120.5Z" transform="translate(-113.439 -343.849)" fill="#fff"/>
  <path id="Path_2801" data-name="Path 2801" d="M1.758,62.008h3.53V60.25H0v5.288H1.758Z" transform="translate(0 -60.25)" fill="#fff"/>
  <path id="Path_2802" data-name="Path 2802" d="M421.75,60.25v1.758h3.53v3.53h1.758V60.25Z" transform="translate(-397.038 -60.25)" fill="#fff"/>
  <path id="Path_2803" data-name="Path 2803" d="M1.758,361.5H0v5.288H5.288V365.03H1.758Z" transform="translate(0 -343.849)" fill="#fff"/>
  <path id="Path_2804" data-name="Path 2804" d="M425.28,365.03h-3.53v1.758h5.288V361.5H425.28Z" transform="translate(-397.038 -343.849)" fill="#fff"/>
  <path id="Path_2805" data-name="Path 2805" d="M180.75,361.5h1.758v1.758H180.75Z" transform="translate(-170.159 -343.849)" fill="#fff"/>
  <path id="Path_2806" data-name="Path 2806" d="M301.25,361.5h1.758v1.758H301.25Z" transform="translate(-283.599 -343.849)" fill="#fff"/>
  <path id="Path_2807" data-name="Path 2807" d="M421.75,361.5h1.758v1.758H421.75Z" transform="translate(-397.038 -343.849)" fill="#fff"/>
  <path id="Path_2808" data-name="Path 2808" d="M52.974,129.318v3.53h1.758v-3.53H56.5v-1.758H54.732V120.5H52.974v7.061H51.2V120.5H49.444v7.061H47.671V120.5H45.913v7.061H44.141V120.5H42.383v7.061H40.611V120.5H38.853v7.061H37.08V120.5H35.323v7.061H33.55V120.5H31.792v7.061H30.021v1.758h1.771v7.061H33.55v-7.061h1.772v3.53H37.08v-3.53h1.772v3.53h1.758v-3.53h1.772v7.061h1.758v-7.061h1.772v3.53h1.758v-3.53h1.772v7.061H51.2v-7.061Z" transform="translate(-28.262 -116.97)" fill="#fff"/>
</svg>
