<svg xmlns="http://www.w3.org/2000/svg" width="51" height="40" viewBox="0 0 51 40">
  <g id="Search_wth_bg" data-name="Search wth bg" transform="translate(-275 7330)">
    <path id="Path_9958" data-name="Path 9958" d="M18.052,0H51V40H0Z" transform="translate(275 -7330)" fill="#1f445a"/>
    <path id="Path_9959" data-name="Path 9959" d="M14.864,14.184l-3.873-3.811a6.126,6.126,0,0,0,1.637-4.163A6.262,6.262,0,0,0,6.317,0,6.261,6.261,0,0,0,.006,6.211a6.261,6.261,0,0,0,6.311,6.211,6.347,6.347,0,0,0,3.972-1.387l3.888,3.826a.491.491,0,0,0,.686,0A.473.473,0,0,0,14.864,14.184ZM6.317,11.466A5.3,5.3,0,0,1,.977,6.211,5.3,5.3,0,0,1,6.317.956a5.3,5.3,0,0,1,5.34,5.255A5.3,5.3,0,0,1,6.317,11.466Z" transform="translate(295.994 -7318)" fill="#fff"/>
  </g>
</svg>
