<svg xmlns="http://www.w3.org/2000/svg" width="20" height="20" viewBox="0 0 20 20">
  <g id="upload" transform="translate(20 15) rotate(180)">
    <path id="Path_5777" data-name="Path 5777" d="M18.438,320.773v-5.43a.782.782,0,0,0-.781-.781H2.344a.782.782,0,0,0-.781.781v5.43H0v-5.43A2.346,2.346,0,0,1,2.344,313H17.656A2.346,2.346,0,0,1,20,315.344v5.43Z" transform="translate(0 -318)" fill="#fff"/>
    <path id="Path_5778" data-name="Path 5778" d="M140.321,9.106l-2.969,2.936V0H135.79V12.042l-2.969-2.936-1.1,1.093,4.855,4.8,4.855-4.8Z" transform="translate(-126.571)" fill="#fff"/>
  </g>
</svg>
